<svg width="45" height="45" viewBox="0 0 45 45" fill="none" xmlns="http://www.w3.org/2000/svg">
<path d="M21.1297 8.27091C21.5637 7.29707 21.7809 6.81015 22.0831 6.66021C22.3456 6.52993 22.6539 6.52993 22.9164 6.66021C23.2186 6.81015 23.4357 7.29707 23.8698 8.27091L27.3273 16.0277C27.4557 16.3155 27.5199 16.4595 27.6192 16.5697C27.707 16.6673 27.8144 16.7453 27.9342 16.7987C28.0698 16.859 28.2266 16.8756 28.5401 16.9087L36.9856 17.8C38.0459 17.9119 38.576 17.9679 38.8121 18.209C39.017 18.4184 39.1122 18.7117 39.0695 19.0016C39.0204 19.3354 38.6244 19.6922 37.8324 20.406L31.5236 26.0914C31.2896 26.3023 31.1724 26.4079 31.0983 26.5363C31.0327 26.6501 30.9916 26.7763 30.9779 26.9068C30.9624 27.0544 30.995 27.2085 31.0604 27.5169L32.8226 35.8245C33.0438 36.8676 33.1544 37.389 32.9981 37.6879C32.8621 37.9478 32.6127 38.1289 32.3238 38.1778C31.9912 38.2341 31.5294 37.9678 30.6057 37.4351L23.2492 33.192C22.9762 33.0345 22.8397 32.9559 22.6946 32.925C22.5661 32.8978 22.4334 32.8978 22.3049 32.925C22.1598 32.9559 22.0233 33.0345 21.7503 33.192L14.3938 37.4351C13.4702 37.9678 13.0084 38.2341 12.6758 38.1778C12.3868 38.1289 12.1374 37.9478 12.0015 37.6879C11.8452 37.389 11.9558 36.8676 12.177 35.8245L13.9391 27.5169C14.0045 27.2085 14.0372 27.0544 14.0216 26.9068C14.0079 26.7763 13.9669 26.6501 13.9013 26.5363C13.8271 26.4079 13.71 26.3023 13.4759 26.0914L7.16724 20.406C6.37522 19.6922 5.9792 19.3354 5.92996 19.0016C5.88721 18.7117 5.98248 18.4184 6.18749 18.209C6.42352 17.9679 6.95367 17.9119 8.01398 17.8L16.4595 16.9087C16.773 16.8756 16.9297 16.859 17.0652 16.7987C17.1851 16.7453 17.2925 16.6673 17.3804 16.5697C17.4796 16.4595 17.5438 16.3155 17.6721 16.0277L21.1297 8.27091Z" fill="white" stroke="white" stroke-width="3" stroke-linecap="round" stroke-linejoin="round"/>
</svg>
