<svg width="100" height="100" viewBox="0 0 100 100" fill="none" xmlns="http://www.w3.org/2000/svg">
<g clip-path="url(#clip0_868_2831)">
<g filter="url(#filter0_d_868_2831)">
<path d="M49.9998 60.4167V68.75M29.1665 41.7867C31.1308 41.6667 33.5523 41.6667 36.6665 41.6667H63.3332C66.4473 41.6667 68.869 41.6667 70.8332 41.7867M29.1665 41.7867C26.7152 41.9362 24.976 42.2729 23.4916 43.0292C21.1396 44.2275 19.2273 46.1396 18.0289 48.4917C16.6665 51.1658 16.6665 54.6658 16.6665 61.6667V67.5C16.6665 74.5008 16.6665 78.0008 18.0289 80.675C19.2273 83.0271 21.1396 84.9392 23.4916 86.1375C26.1655 87.5 29.6658 87.5 36.6665 87.5H63.3332C70.334 87.5 73.834 87.5 76.5082 86.1375C78.8602 84.9392 80.7723 83.0271 81.9707 80.675C83.3332 78.0008 83.3332 74.5008 83.3332 67.5V61.6667C83.3332 54.6658 83.3332 51.1658 81.9707 48.4917C80.7723 46.1396 78.8602 44.2275 76.5082 43.0292C75.0236 42.2729 73.2844 41.9362 70.8332 41.7867M29.1665 41.7867V33.3333C29.1665 21.8274 38.4939 12.5 49.9998 12.5C61.5057 12.5 70.8332 21.8274 70.8332 33.3333V41.7867" stroke="white" stroke-width="8" stroke-linecap="round" stroke-linejoin="round" shape-rendering="crispEdges"/>
</g>
</g>
<defs>
<filter id="filter0_d_868_2831" x="2.6665" y="-1.5" width="94.6665" height="103" filterUnits="userSpaceOnUse" color-interpolation-filters="sRGB">
<feFlood flood-opacity="0" result="BackgroundImageFix"/>
<feColorMatrix in="SourceAlpha" type="matrix" values="0 0 0 0 0 0 0 0 0 0 0 0 0 0 0 0 0 0 127 0" result="hardAlpha"/>
<feOffset/>
<feGaussianBlur stdDeviation="5"/>
<feComposite in2="hardAlpha" operator="out"/>
<feColorMatrix type="matrix" values="0 0 0 0 0.167437 0 0 0 0 0.158924 0 0 0 0 0.191667 0 0 0 0.15 0"/>
<feBlend mode="normal" in2="BackgroundImageFix" result="effect1_dropShadow_868_2831"/>
<feBlend mode="normal" in="SourceGraphic" in2="effect1_dropShadow_868_2831" result="shape"/>
</filter>
<clipPath id="clip0_868_2831">
<rect width="100" height="100" fill="white"/>
</clipPath>
</defs>
</svg>
