<svg width="24" height="24" viewBox="0 0 24 24" fill="none" xmlns="http://www.w3.org/2000/svg">
<path d="M16.0831 4.41744L19.3829 7.71727M13.1667 22.5H22.5M1.5 22.5005L1.55536 22.113C1.75125 20.7417 1.84921 20.0561 2.072 19.4159C2.26971 18.848 2.53978 18.3078 2.87557 17.8088C3.25398 17.2465 3.74372 16.7567 4.7232 15.7773L18.3125 2.18796C19.2238 1.27675 20.7011 1.27674 21.6124 2.18796C22.5236 3.09919 22.5236 4.57657 21.6124 5.4878L7.77368 19.3264C6.88509 20.2151 6.4408 20.6593 5.93473 21.0127C5.48554 21.3263 5.00108 21.5861 4.49131 21.7868C3.917 22.0128 3.30104 22.137 2.06925 22.3857L1.5 22.5005Z" stroke="#828282" stroke-width="2.5" stroke-linecap="round" stroke-linejoin="round"/>
</svg>
