<svg width="111" height="111" viewBox="0 0 111 111" fill="none" xmlns="http://www.w3.org/2000/svg">
<path d="M55.6035 0.916748C70.1075 0.916748 84.0175 6.67845 94.2734 16.9343C104.529 27.1902 110.291 41.1002 110.291 55.6042C110.291 70.1083 104.529 84.0182 94.2734 94.2741C84.0175 104.53 70.1075 110.292 55.6035 110.292C41.0995 110.292 27.1895 104.53 16.9336 94.2741C6.67772 84.0182 0.916016 70.1083 0.916016 55.6042C0.916016 41.1002 6.67772 27.1902 16.9336 16.9343C27.1895 6.67845 41.0995 0.916748 55.6035 0.916748ZM48.791 66.3933L36.6426 54.2371C36.2071 53.8015 35.69 53.4561 35.121 53.2204C34.552 52.9847 33.9421 52.8634 33.3262 52.8634C32.7103 52.8634 32.1004 52.9847 31.5313 53.2204C30.9623 53.4561 30.4453 53.8015 30.0098 54.2371C29.1302 55.1166 28.6361 56.3096 28.6361 57.5535C28.6361 58.7974 29.1302 59.9903 30.0098 60.8699L45.4785 76.3386C45.9128 76.7763 46.4294 77.1237 46.9986 77.3608C47.5678 77.5979 48.1783 77.7199 48.7949 77.7199C49.4115 77.7199 50.022 77.5979 50.5912 77.3608C51.1604 77.1237 51.677 76.7763 52.1113 76.3386L84.1426 44.2996C84.5839 43.8658 84.935 43.349 85.1756 42.779C85.4162 42.2089 85.5416 41.5968 85.5445 40.978C85.5473 40.3593 85.4277 39.7461 85.1924 39.1738C84.9571 38.6015 84.6108 38.0814 84.1735 37.6436C83.7363 37.2058 83.2166 36.859 82.6446 36.623C82.0726 36.387 81.4595 36.2666 80.8407 36.2688C80.222 36.2709 79.6097 36.3956 79.0394 36.6355C78.469 36.8754 77.9518 37.2259 77.5176 37.6667L48.791 66.3933Z" fill="black"/>
</svg>
