<svg width="20" height="19" viewBox="0 0 20 19" fill="none" xmlns="http://www.w3.org/2000/svg">
<path d="M1.15152 16.6515C0.682893 17.1202 0.682893 17.8799 1.15152 18.3485C1.62014 18.8171 2.37995 18.8171 2.84857 18.3485L1.15152 16.6515ZM10.8485 10.3485C11.3172 9.87986 11.3172 9.12018 10.8485 8.65154C10.3799 8.1829 9.62021 8.1829 9.15157 8.65154L10.8485 10.3485ZM9.15157 8.65154C8.68293 9.12018 8.68293 9.87986 9.15157 10.3485C9.62021 10.8171 10.3799 10.8171 10.8485 10.3485L9.15157 8.65154ZM18.8485 2.34854C19.3172 1.87992 19.3172 1.12011 18.8485 0.651486C18.3799 0.182862 17.6202 0.182862 17.1516 0.651486L18.8485 2.34854ZM10.8485 8.65154C10.3799 8.1829 9.62021 8.1829 9.15157 8.65154C8.68293 9.12018 8.68293 9.87986 9.15157 10.3485L10.8485 8.65154ZM17.1516 18.3485C17.6202 18.8171 18.3799 18.8171 18.8485 18.3485C19.3172 17.8799 19.3172 17.1202 18.8485 16.6515L17.1516 18.3485ZM9.15157 10.3485C9.62021 10.8171 10.3799 10.8171 10.8485 10.3485C11.3172 9.87986 11.3172 9.12018 10.8485 8.65154L9.15157 10.3485ZM2.84857 0.651486C2.37995 0.182862 1.62014 0.182862 1.15152 0.651486C0.682893 1.12011 0.682893 1.87992 1.15152 2.34854L2.84857 0.651486ZM2.84857 18.3485L10.8485 10.3485L9.15157 8.65154L1.15152 16.6515L2.84857 18.3485ZM10.8485 10.3485L18.8485 2.34854L17.1516 0.651486L9.15157 8.65154L10.8485 10.3485ZM9.15157 10.3485L17.1516 18.3485L18.8485 16.6515L10.8485 8.65154L9.15157 10.3485ZM10.8485 8.65154L2.84857 0.651486L1.15152 2.34854L9.15157 10.3485L10.8485 8.65154Z" fill="#616161"/>
</svg>
