<svg width="25" height="25" viewBox="0 0 25 25" fill="none" xmlns="http://www.w3.org/2000/svg">
<rect width="25" height="25" rx="6" fill="#2B2931" fill-opacity="0.4"/>
<path d="M6.72206 16.9766C6.42598 17.2822 6.42598 17.7776 6.72206 18.0833C7.01813 18.3889 7.49817 18.3889 7.79425 18.0833L6.72206 16.9766ZM12.8486 12.8659C13.1447 12.5602 13.1447 12.0648 12.8486 11.7592C12.5525 11.4535 12.0725 11.4535 11.7764 11.7592L12.8486 12.8659ZM11.7764 11.7592C11.4804 12.0648 11.4804 12.5602 11.7764 12.8659C12.0725 13.1715 12.5525 13.1715 12.8486 12.8659L11.7764 11.7592ZM17.9029 7.6485C18.199 7.34287 18.199 6.84734 17.9029 6.54172C17.6069 6.23609 17.1269 6.23609 16.8308 6.54172L17.9029 7.6485ZM12.8486 11.7592C12.5525 11.4535 12.0725 11.4535 11.7764 11.7592C11.4804 12.0648 11.4804 12.5602 11.7764 12.8659L12.8486 11.7592ZM16.8308 18.0833C17.1269 18.3889 17.6069 18.3889 17.9029 18.0833C18.199 17.7776 18.199 17.2822 17.9029 16.9766L16.8308 18.0833ZM11.7764 12.8659C12.0725 13.1715 12.5525 13.1715 12.8486 12.8659C13.1447 12.5602 13.1447 12.0648 12.8486 11.7592L11.7764 12.8659ZM7.79425 6.54172C7.49817 6.23609 7.01813 6.23609 6.72206 6.54172C6.42598 6.84734 6.42598 7.34287 6.72206 7.6485L7.79425 6.54172ZM7.79425 18.0833L12.8486 12.8659L11.7764 11.7592L6.72206 16.9766L7.79425 18.0833ZM12.8486 12.8659L17.9029 7.6485L16.8308 6.54172L11.7764 11.7592L12.8486 12.8659ZM11.7764 12.8659L16.8308 18.0833L17.9029 16.9766L12.8486 11.7592L11.7764 12.8659ZM12.8486 11.7592L7.79425 6.54172L6.72206 7.6485L11.7764 12.8659L12.8486 11.7592Z" fill="white"/>
</svg>
