<svg width="125" height="125" viewBox="0 0 125 125" fill="none" xmlns="http://www.w3.org/2000/svg">
<path d="M62.5002 75.5208V85.9375M36.4585 52.2333C38.9138 52.0833 41.9407 52.0833 45.8335 52.0833H79.1668C83.0595 52.0833 86.0866 52.0833 88.5418 52.2333M36.4585 52.2333C33.3943 52.4203 31.2204 52.8411 29.3649 53.7865C26.4249 55.2844 24.0345 57.6745 22.5365 60.6146C20.8335 63.9573 20.8335 68.3323 20.8335 77.0833V84.375C20.8335 93.126 20.8335 97.501 22.5365 100.844C24.0345 103.784 26.4249 106.174 29.3649 107.672C32.7072 109.375 37.0827 109.375 45.8335 109.375H79.1668C87.9179 109.375 92.2929 109.375 95.6356 107.672C98.5757 106.174 100.966 103.784 102.464 100.844C104.167 97.501 104.167 93.126 104.167 84.375V77.0833C104.167 68.3323 104.167 63.9573 102.464 60.6146C100.966 57.6745 98.5757 55.2844 95.6356 53.7865C93.7798 52.8411 91.6059 52.4203 88.5418 52.2333M36.4585 52.2333V41.6667C36.4585 27.2843 48.1178 15.625 62.5002 15.625C76.8825 15.625 88.5418 27.2843 88.5418 41.6667V52.2333" stroke="#0F0F10" stroke-width="8" stroke-linecap="round" stroke-linejoin="round"/>
</svg>
