<svg width="35" height="36" viewBox="0 0 35 36" fill="none" xmlns="http://www.w3.org/2000/svg">
<path fill-rule="evenodd" clip-rule="evenodd" d="M15.393 33.0118C14.6265 33.0118 13.9726 32.4428 13.8478 31.6671C13.7328 31.0396 13.2923 30.5269 12.6998 30.3311C12.217 30.161 11.7449 29.9605 11.2863 29.7306C10.7406 29.4443 10.0859 29.4871 9.58004 29.8421C8.96786 30.2935 8.1269 30.2236 7.5936 29.6769L5.51933 27.5495C4.96109 26.9769 4.88856 26.0742 5.34787 25.4156C5.7021 24.8848 5.75312 24.2005 5.48169 23.6206C5.30286 23.2178 5.1451 22.8054 5.00913 22.3853C4.81438 21.7232 4.27683 21.2274 3.61443 21.0985C2.81565 20.9677 2.22594 20.264 2.21975 19.4343V16.7728C2.2155 15.8166 2.88895 14.9986 3.8089 14.8427C4.5068 14.7065 5.08955 14.2163 5.35624 13.5409C5.43569 13.3508 5.51933 13.162 5.60715 12.9747C5.96183 12.2744 5.91285 11.4309 5.47959 10.7787C4.9378 10.0063 5.02099 8.94522 5.67615 8.27162L7.20049 6.7082C7.9523 5.93683 9.13801 5.837 10.0024 6.47229L10.0505 6.50661C10.696 6.95217 11.5173 7.03287 12.2335 6.72107C12.9997 6.43821 13.5645 5.76294 13.7202 4.94319L13.7412 4.87027C13.9132 3.78503 14.827 2.98776 15.8991 2.9873H17.7392C18.84 2.98679 19.7796 3.80348 19.9597 4.91745L19.9932 5.06757C20.1409 5.85286 20.6764 6.50279 21.4067 6.78326C22.1105 7.09309 22.9199 7.01218 23.5521 6.5688L23.6566 6.49159C24.5434 5.83607 25.7628 5.93689 26.5359 6.72964L27.9389 8.17082C28.6421 8.89604 28.7305 10.0365 28.148 10.8666C27.6917 11.5604 27.6335 12.452 27.9953 13.2021L28.0854 13.4165C28.3784 14.1489 29.0125 14.6797 29.7706 14.8277C30.7617 14.9935 31.4904 15.8697 31.4936 16.8994V19.2863C31.4934 20.1943 30.853 20.969 29.9797 21.1178C29.2615 21.2591 28.6765 21.7925 28.4554 22.5075C28.3578 22.7934 28.249 23.0795 28.1292 23.3654C27.8501 23.9937 27.9121 24.7259 28.2924 25.2955C28.794 26.0114 28.7161 26.9947 28.1084 27.6181L26.1617 29.6169C25.605 30.1878 24.727 30.2613 24.0874 29.7906C23.5534 29.4164 22.8618 29.3752 22.2892 29.6834C21.8811 29.8908 21.4622 30.0748 21.0346 30.2345C20.4364 30.4462 19.9955 30.9712 19.8804 31.6092C19.7583 32.412 19.0873 33.0058 18.2953 33.0118H15.393Z" stroke="black" stroke-width="3.5" stroke-linecap="round" stroke-linejoin="round"/>
<path fill-rule="evenodd" clip-rule="evenodd" d="M21.735 18.0005C21.735 20.7638 19.5509 23.0038 16.8567 23.0038C14.1624 23.0038 11.9784 20.7638 11.9784 18.0005C11.9784 15.2371 14.1624 12.9971 16.8567 12.9971C19.5509 12.9971 21.735 15.2371 21.735 18.0005Z" stroke="black" stroke-width="3.5" stroke-linecap="round" stroke-linejoin="round"/>
</svg>
