<svg width="201" height="200" viewBox="0 0 201 200" fill="none" xmlns="http://www.w3.org/2000/svg">
<rect x="0.5" width="200" height="200" rx="15" fill="#E9E9E9"/>
<g clip-path="url(#clip0_0_7)">
<path d="M97.3864 25.8333C78.3864 25.8333 63.1864 41.0333 63.1864 60.0333V75.2333C54.4464 73.3333 49.4352 71.8133 49.0552 71.4333C47.1552 70.6733 44.9464 71.7896 44.1864 73.6896C43.4264 75.5896 44.5427 77.9171 46.4427 78.6771C47.9627 78.6771 69.2427 86.2771 101.543 86.2771C133.843 86.2771 155.17 78.7008 155.93 78.3208C158.21 77.9408 158.946 75.5896 158.186 73.6896C157.426 71.7896 155.099 70.6733 153.199 71.4333C153.199 71.4333 147.926 73.3333 139.186 75.2333V60.0333C139.186 41.0333 123.986 25.8333 104.986 25.8333H97.3864ZM66.9864 86.2771C64.7064 86.2771 63.1864 87.7971 63.1864 90.0771V93.5208C61.6664 95.4208 59.3864 99.2446 59.3864 104.565C59.3864 114.065 64.3264 120.097 66.9864 122.377C67.7464 132.637 73.0664 140.617 78.3864 145.177V157.765C75.7264 163.845 66.2264 167.597 55.5864 171.777C43.0464 176.717 28.5352 182.417 20.5552 194.577C19.7952 195.717 19.2401 198.86 20.0001 200C20.7601 201.14 22.4789 200.277 23.9989 200.277H78.7427C80.2627 200.277 81.4502 199.565 81.8302 197.665C82.2102 196.525 82.1152 195.005 81.3552 193.865C76.0352 186.265 74.1589 175.957 73.3989 171.777C77.4739 169.604 81.0196 167.069 83.3739 163.702C84.5311 164.351 86.1039 165.233 88.3614 166.196C89.9448 166.871 91.7419 167.518 93.5864 168.096L99.2864 177.477C99.2864 177.477 90.1427 188.877 90.1427 200.277H113.299C113.299 188.497 103.799 177.477 103.799 177.477L109.499 168.096C111.274 167.523 112.96 166.865 114.486 166.196C116.293 165.404 117.833 164.564 118.999 163.94C121.35 167.556 125.055 170.21 129.33 172.49C128.57 176.67 126.575 186.597 121.255 194.577C120.115 195.717 120.139 197.237 120.899 198.377C121.659 199.517 122.823 200.277 124.343 200.277H179.086C180.606 200.277 183.12 201.14 183.5 200C184.26 198.86 182.815 195.717 182.055 194.577C174.075 182.417 159.683 176.717 147.143 171.777C136.503 167.597 127.003 164.225 124.343 157.765V145.177C129.663 140.617 135.363 132.637 135.743 122.377C138.403 120.097 143.343 114.065 143.343 104.565C143.343 99.2446 141.063 95.4208 139.543 93.5208V90.0771C139.543 87.7971 138.023 86.2771 135.743 86.2771C133.463 86.2771 131.943 87.7971 131.943 90.0771V94.5896C131.943 95.7296 132.37 96.5608 133.13 97.3208C133.13 97.7008 135.743 100.385 135.743 104.565C135.743 113.305 130.423 117.39 130.043 117.39C128.903 117.77 128.143 119.337 128.143 120.477C128.143 129.977 122.846 136.77 118.286 140.19C117.526 140.95 116.743 142.137 116.743 143.277V156.577C116.274 156.857 114.38 157.935 111.518 159.19C108.272 160.612 104.086 161.921 101.543 161.921C98.9993 161.921 94.7983 160.619 91.4489 159.19C88.578 157.965 86.5883 156.9 85.9864 156.577V143.277C85.9864 142.137 85.5827 140.95 84.4427 140.19C79.5027 136.77 74.5864 129.977 74.5864 120.477C74.5864 119.337 74.1827 118.15 73.0427 117.39C72.6627 117.01 66.9864 113.305 66.9864 104.565C66.9864 100.765 69.5989 97.6771 69.5989 97.6771C70.3589 96.9171 70.7864 96.2046 70.7864 95.0646V90.0771C70.7864 87.7971 69.2664 86.2771 66.9864 86.2771ZM112.111 93.8771C110.58 94.0018 107.266 94.4946 104.986 96.4896C101.946 99.1496 101.543 104.09 101.543 104.09C101.543 104.09 106.815 104.137 109.855 101.477C112.895 98.8171 112.943 93.8771 112.943 93.8771C112.943 93.8771 112.622 93.8355 112.111 93.8771ZM95.4864 105.277C90.5464 105.277 86.3427 109.457 86.3427 114.777C86.3427 124.277 95.0352 131.877 98.4552 131.877C99.5952 131.877 100.783 131.545 101.543 131.165C102.303 131.545 103.49 131.877 104.63 131.877C108.05 131.877 116.743 125.797 116.743 114.777C116.743 109.457 112.539 105.277 107.599 105.277C105.319 105.277 103.063 106.013 101.543 107.533C100.023 106.013 97.7664 105.277 95.4864 105.277Z" fill="#A1A1A1"/>
</g>
<defs>
<clipPath id="clip0_0_7">
<rect width="190" height="190" fill="white" transform="translate(5.99902 10)"/>
</clipPath>
</defs>
</svg>
