<svg width="211" height="210" viewBox="0 0 211 210" fill="none" xmlns="http://www.w3.org/2000/svg">
<rect x="3" y="2.5" width="205" height="205" rx="17.5" fill="#E9E9E9" stroke="white" stroke-width="5"/>
<g clip-path="url(#clip0_984_2057)">
<path d="M102.386 30.833C83.3863 30.833 68.1863 46.033 68.1863 65.033V80.233C59.4463 78.333 54.435 76.813 54.055 76.433C52.155 75.673 49.9463 76.7893 49.1863 78.6893C48.4263 80.5893 49.5425 82.9168 51.4425 83.6768C52.9625 83.6768 74.2425 91.2768 106.543 91.2768C138.843 91.2768 160.17 83.7005 160.93 83.3205C163.21 82.9405 163.946 80.5893 163.186 78.6893C162.426 76.7893 160.099 75.673 158.199 76.433C158.199 76.433 152.926 78.333 144.186 80.233V65.033C144.186 46.033 128.986 30.833 109.986 30.833H102.386ZM71.9863 91.2768C69.7063 91.2768 68.1863 92.7968 68.1863 95.0768V98.5205C66.6663 100.421 64.3863 104.244 64.3863 109.564C64.3863 119.064 69.3263 125.097 71.9863 127.377C72.7463 137.637 78.0663 145.617 83.3863 150.177V162.764C80.7263 168.844 71.2263 172.597 60.5863 176.777C48.0463 181.717 33.535 187.417 25.555 199.577C24.795 200.717 24.24 203.86 25 205C25.76 206.14 27.4788 205.277 28.9988 205.277H83.7425C85.2625 205.277 86.45 204.564 86.83 202.664C87.21 201.524 87.115 200.004 86.355 198.864C81.035 191.264 79.1588 180.957 78.3988 176.777C82.4737 174.603 86.0195 172.068 88.3738 168.702C89.531 169.35 91.1038 170.232 93.3613 171.195C94.9446 171.871 96.7418 172.518 98.5863 173.095L104.286 182.477C104.286 182.477 95.1425 193.877 95.1425 205.277H118.299C118.299 193.497 108.799 182.477 108.799 182.477L114.499 173.095C116.274 172.523 117.96 171.865 119.486 171.195C121.293 170.404 122.833 169.563 123.999 168.939C126.35 172.555 130.055 175.209 134.33 177.489C133.57 181.669 131.575 191.597 126.255 199.577C125.115 200.717 125.139 202.237 125.899 203.377C126.659 204.517 127.823 205.277 129.343 205.277H184.086C185.606 205.277 188.12 206.14 188.5 205C189.26 203.86 187.815 200.717 187.055 199.577C179.075 187.417 164.683 181.717 152.143 176.777C141.503 172.597 132.003 169.224 129.343 162.764V150.177C134.663 145.617 140.363 137.637 140.743 127.377C143.403 125.097 148.343 119.064 148.343 109.564C148.343 104.244 146.063 100.421 144.543 98.5205V95.0768C144.543 92.7968 143.023 91.2768 140.743 91.2768C138.463 91.2768 136.943 92.7968 136.943 95.0768V99.5893C136.943 100.729 137.37 101.561 138.13 102.321C138.13 102.701 140.743 105.384 140.743 109.564C140.743 118.304 135.423 122.389 135.043 122.389C133.903 122.769 133.143 124.337 133.143 125.477C133.143 134.977 127.846 141.769 123.286 145.189C122.526 145.949 121.743 147.137 121.743 148.277V161.577C121.274 161.856 119.38 162.935 116.518 164.189C113.272 165.612 109.086 166.921 106.543 166.921C103.999 166.921 99.7982 165.618 96.4488 164.189C93.5778 162.964 91.5881 161.9 90.9863 161.577V148.277C90.9863 147.137 90.5825 145.949 89.4425 145.189C84.5025 141.769 79.5863 134.977 79.5863 125.477C79.5863 124.337 79.1825 123.149 78.0425 122.389C77.6625 122.009 71.9863 118.304 71.9863 109.564C71.9863 105.764 74.5988 102.677 74.5988 102.677C75.3588 101.917 75.7863 101.204 75.7863 100.064V95.0768C75.7863 92.7968 74.2663 91.2768 71.9863 91.2768ZM117.111 98.8768C115.579 99.0014 112.266 99.4942 109.986 101.489C106.946 104.149 106.543 109.089 106.543 109.089C106.543 109.089 111.815 109.137 114.855 106.477C117.895 103.817 117.943 98.8768 117.943 98.8768C117.943 98.8768 117.622 98.8352 117.111 98.8768ZM100.486 110.277C95.5463 110.277 91.3425 114.457 91.3425 119.777C91.3425 129.277 100.035 136.877 103.455 136.877C104.595 136.877 105.783 136.544 106.543 136.164C107.303 136.544 108.49 136.877 109.63 136.877C113.05 136.877 121.743 130.797 121.743 119.777C121.743 114.457 117.539 110.277 112.599 110.277C110.319 110.277 108.063 111.013 106.543 112.533C105.023 111.013 102.766 110.277 100.486 110.277Z" fill="#A1A1A1"/>
</g>
<defs>
<clipPath id="clip0_984_2057">
<rect width="190" height="190" fill="white" transform="translate(10.999 15)"/>
</clipPath>
</defs>
</svg>
