<svg width="20" height="20" viewBox="0 0 20 20" fill="none" xmlns="http://www.w3.org/2000/svg">
<path d="M1.15225 17.1516C0.683625 17.6202 0.683625 18.3799 1.15225 18.8485C1.62087 19.3172 2.38068 19.3172 2.84931 18.8485L1.15225 17.1516ZM10.8493 10.8485C11.3179 10.3799 11.3179 9.62021 10.8493 9.15157C10.3806 8.68293 9.62094 8.68293 9.1523 9.15157L10.8493 10.8485ZM9.1523 9.15157C8.68366 9.62021 8.68366 10.3799 9.1523 10.8485C9.62094 11.3172 10.3806 11.3172 10.8493 10.8485L9.1523 9.15157ZM18.8493 2.84857C19.3179 2.37995 19.3179 1.62014 18.8493 1.15152C18.3806 0.682893 17.6209 0.682893 17.1523 1.15152L18.8493 2.84857ZM10.8493 9.15157C10.3806 8.68293 9.62094 8.68293 9.1523 9.15157C8.68366 9.62021 8.68366 10.3799 9.1523 10.8485L10.8493 9.15157ZM17.1523 18.8485C17.6209 19.3172 18.3806 19.3172 18.8493 18.8485C19.3179 18.3799 19.3179 17.6202 18.8493 17.1516L17.1523 18.8485ZM9.1523 10.8485C9.62094 11.3172 10.3806 11.3172 10.8493 10.8485C11.3179 10.3799 11.3179 9.62021 10.8493 9.15157L9.1523 10.8485ZM2.84931 1.15152C2.38068 0.682893 1.62087 0.682893 1.15225 1.15152C0.683625 1.62014 0.683625 2.37995 1.15225 2.84857L2.84931 1.15152ZM2.84931 18.8485L10.8493 10.8485L9.1523 9.15157L1.15225 17.1516L2.84931 18.8485ZM10.8493 10.8485L18.8493 2.84857L17.1523 1.15152L9.1523 9.15157L10.8493 10.8485ZM9.1523 10.8485L17.1523 18.8485L18.8493 17.1516L10.8493 9.15157L9.1523 10.8485ZM10.8493 9.15157L2.84931 1.15152L1.15225 2.84857L9.1523 10.8485L10.8493 9.15157Z" fill="white"/>
</svg>
