<svg width="25" height="25" viewBox="0 0 25 25" fill="none" xmlns="http://www.w3.org/2000/svg">
<path d="M16.1456 5.72995L19.0919 8.67623M13.5417 21.8751H21.875M3.125 21.8755L3.17443 21.5296C3.34933 20.3052 3.43679 19.693 3.63572 19.1214C3.81224 18.6144 4.05337 18.1321 4.35319 17.6865C4.69105 17.1845 5.12832 16.7472 6.00285 15.8727L18.1361 3.73934C18.9498 2.92576 20.2689 2.92575 21.0825 3.73934C21.896 4.55294 21.896 5.87203 21.0825 6.68562L8.7265 19.0415C7.93311 19.835 7.53643 20.2316 7.08458 20.5472C6.68352 20.8272 6.25097 21.0591 5.79581 21.2383C5.28303 21.4401 4.73307 21.551 3.63326 21.773L3.125 21.8755Z" stroke="#0F0F10" stroke-width="2" stroke-linecap="round" stroke-linejoin="round"/>
</svg>
