<svg width="31" height="32" viewBox="0 0 31 32" fill="none" xmlns="http://www.w3.org/2000/svg">
<path d="M0.592149 28.4375C-0.197383 29.2525 -0.197383 30.5737 0.592149 31.3887C1.38168 32.2038 2.66179 32.2038 3.45133 31.3887L0.592149 28.4375ZM16.9295 17.4757C17.7191 16.6606 17.7191 15.3394 16.9295 14.5244C16.14 13.7094 14.8601 13.7094 14.0705 14.5244L16.9295 17.4757ZM14.0705 14.5244C13.281 15.3394 13.281 16.6606 14.0705 17.4757C14.8601 18.2907 16.14 18.2907 16.9295 17.4757L14.0705 14.5244ZM30.4078 3.56266C31.1974 2.74766 31.1974 1.42625 30.4078 0.61125C29.6183 -0.20375 28.3384 -0.20375 27.5488 0.61125L30.4078 3.56266ZM16.9295 14.5244C16.14 13.7094 14.8601 13.7094 14.0705 14.5244C13.281 15.3394 13.281 16.6606 14.0705 17.4757L16.9295 14.5244ZM27.5488 31.3887C28.3384 32.2038 29.6183 32.2038 30.4078 31.3887C31.1974 30.5737 31.1974 29.2525 30.4078 28.4375L27.5488 31.3887ZM14.0705 17.4757C14.8601 18.2907 16.14 18.2907 16.9295 17.4757C17.7191 16.6606 17.7191 15.3394 16.9295 14.5244L14.0705 17.4757ZM3.45133 0.61125C2.66179 -0.20375 1.38168 -0.20375 0.592149 0.61125C-0.197383 1.42625 -0.197383 2.74766 0.592149 3.56266L3.45133 0.61125ZM3.45133 31.3887L16.9295 17.4757L14.0705 14.5244L0.592149 28.4375L3.45133 31.3887ZM16.9295 17.4757L30.4078 3.56266L27.5488 0.61125L14.0705 14.5244L16.9295 17.4757ZM14.0705 17.4757L27.5488 31.3887L30.4078 28.4375L16.9295 14.5244L14.0705 17.4757ZM16.9295 14.5244L3.45133 0.61125L0.592149 3.56266L14.0705 17.4757L16.9295 14.5244Z" fill="#0F0F10"/>
</svg>
