<svg width="23" height="23" viewBox="0 0 23 23" fill="none" xmlns="http://www.w3.org/2000/svg">
<path fill-rule="evenodd" clip-rule="evenodd" d="M11.5 13.8C15.8527 13.8 19.5017 16.3461 20.4516 20.7H2.5484C3.4983 16.3461 7.14725 13.8 11.5 13.8ZM6.9 6.9C6.9 4.3631 8.9631 2.3 11.5 2.3C14.0369 2.3 16.1 4.3631 16.1 6.9C16.1 9.4369 14.0369 11.5 11.5 11.5C8.9631 11.5 6.9 9.4369 6.9 6.9ZM15.8217 12.2739C17.3926 11.0101 18.4 9.0735 18.4 6.9C18.4 3.0889 15.3111 0 11.5 0C7.6889 0 4.6 3.0889 4.6 6.9C4.6 9.0735 5.6074 11.0101 7.1783 12.2739C2.97046 13.8552 0 17.7617 0 23H23C23 17.7617 20.0295 13.8552 15.8217 12.2739Z" fill="#0F0F10"/>
</svg>
