<svg width="31" height="30" viewBox="0 0 31 30" fill="none" xmlns="http://www.w3.org/2000/svg">
<path fill-rule="evenodd" clip-rule="evenodd" d="M15.5 0C23.7845 0 30.5 6.88489 30.5 15.3794C30.5 22.1729 26.207 27.9359 20.2505 29.9714C19.49 30.1229 19.22 29.6427 19.22 29.2332C19.22 28.7262 19.238 27.0702 19.238 25.0122C19.238 23.5782 18.758 22.6423 18.2195 22.1653C21.56 21.7843 25.07 20.4837 25.07 14.5767C25.07 12.8967 24.488 11.5257 23.525 10.4487C23.681 10.0602 24.1955 8.49593 23.378 6.37793C23.378 6.37793 22.121 5.96583 19.2575 7.95483C18.059 7.61433 16.775 7.44301 15.5 7.43701C14.225 7.44301 12.9425 7.61433 11.7455 7.95483C8.879 5.96583 7.619 6.37793 7.619 6.37793C6.8045 8.49593 7.319 10.0602 7.4735 10.4487C6.515 11.5257 5.9285 12.8967 5.9285 14.5767C5.9285 20.4687 9.431 21.7892 12.7625 22.1777C12.3335 22.5617 11.945 23.2391 11.81 24.2336C10.955 24.6266 8.783 25.3068 7.445 22.9563C7.445 22.9563 6.6515 21.4786 5.1455 21.3706C5.1455 21.3706 3.683 21.3512 5.0435 22.3052C5.0435 22.3052 6.026 22.7777 6.7085 24.5552C6.7085 24.5552 7.589 27.3001 11.762 26.3701C11.7695 27.6556 11.783 28.8672 11.783 29.2332C11.783 29.6397 11.507 30.1154 10.7585 29.9729C4.7975 27.9404 0.5 22.1744 0.5 15.3794C0.5 6.88489 7.217 0 15.5 0Z" fill="#0F0F10"/>
</svg>
