<svg width="40" height="35" viewBox="0 0 40 35" fill="none" xmlns="http://www.w3.org/2000/svg">
<path d="M9.72006 5.51328C10.3274 4.14172 10.3275 4.14176 10.3276 4.1418L10.3278 4.14191L10.3285 4.14223L10.3308 4.14324L10.3387 4.14675L10.3674 4.15955L10.4728 4.20694C10.563 4.24769 10.6914 4.30619 10.847 4.37827C11.1571 4.52202 11.5791 4.72179 12.0218 4.94386C12.4446 5.15591 12.9034 5.39685 13.3071 5.63452C13.6917 5.35533 14.1867 5.0436 14.8054 4.73721C16.498 3.89889 19.0727 3.12207 22.7762 3.12207C30.4153 3.12207 37.8225 9.03134 37.8225 17.2104C37.8225 21.2101 36.3607 23.9288 34.8392 25.6486C34.0879 26.4979 33.3338 27.0913 32.7587 27.4767C32.6364 27.5587 32.5217 27.6315 32.4165 27.6957C32.1253 28.8401 31.7234 29.954 31.2162 31.0216C30.9677 31.5446 30.4404 31.8779 29.8613 31.8779H27.0982C26.5905 31.8779 26.1173 31.6211 25.8406 31.1954C25.5585 30.7615 25.294 30.3165 25.0476 29.8617C24.9528 29.8707 24.8536 29.8799 24.7507 29.889C23.989 29.957 22.9892 30.0287 22.1303 30.0287C22.1201 30.0287 22.11 30.0285 22.0998 30.0283C21.3765 30.0136 20.6548 29.9612 19.9376 29.8713C19.7728 30.3256 19.5599 30.7625 19.3018 31.1744C19.0275 31.6121 18.5473 31.8779 18.0308 31.8779H15.0227C14.6646 31.8779 14.3184 31.7498 14.0465 31.5168C13.5923 31.1274 13.2802 30.6155 13.0686 30.1948C12.846 29.7523 12.6724 29.2831 12.5416 28.8752C12.4526 28.5977 12.3792 28.335 12.321 28.109C12.1578 28.032 11.9693 27.9424 11.7601 27.8418C11.0129 27.4823 9.99674 26.98 8.9265 26.4108C7.86013 25.8436 6.71965 25.1991 5.7316 24.5551C4.78952 23.9411 3.82628 23.2275 3.25831 22.5017C3.20485 22.4334 3.15742 22.3605 3.11654 22.284C2.51671 21.1612 2.31939 19.5592 2.23899 18.4587C2.19567 17.8657 2.18163 17.3304 2.1783 16.9437C2.17662 16.7497 2.17763 16.5914 2.17911 16.4798C2.17984 16.424 2.1807 16.3798 2.1814 16.3486L2.18231 16.3117L2.18261 16.3008L2.18271 16.2973L2.18275 16.2961L2.18276 16.2956C2.18277 16.2954 2.18277 16.2952 3.68206 16.3414L2.18277 16.2952C2.19521 15.8921 2.36936 15.5111 2.66597 15.238C3.48786 14.4811 4.4543 13.9036 5.50366 13.5379C6.06036 12.0907 6.89336 10.7664 7.95525 9.63865C7.92634 9.47606 7.90798 9.31704 7.89595 9.1686C7.84907 8.59005 7.88225 7.94721 7.93407 7.39059C7.98705 6.8214 8.06568 6.28097 8.12999 5.88707C8.16236 5.68881 8.19161 5.5246 8.21302 5.40867C8.22374 5.35064 8.23252 5.30453 8.23879 5.27211L8.24625 5.23391L8.24844 5.22288L8.24912 5.21946L8.24936 5.21828L8.24945 5.21782C8.24949 5.21763 8.24952 5.21745 9.72006 5.51328ZM9.72006 5.51328L10.3274 4.14172C9.91143 3.95755 9.43439 3.97208 9.03043 4.18121C8.62647 4.39035 8.33924 4.7715 8.24952 5.21745L9.72006 5.51328Z" stroke="#0F0F10" stroke-width="3" stroke-linecap="round" stroke-linejoin="round"/>
<path d="M16 9.31797C17.7849 8.03466 19.954 7.3981 22.1493 7.51329C24.5482 7.47371 26.8946 8.21675 28.8334 9.62994" stroke="#0F0F10" stroke-width="3" stroke-linecap="round" stroke-linejoin="round"/>
<path d="M10.5833 15.3334C11.2737 15.3334 11.8333 14.7737 11.8333 14.0834C11.8333 13.393 11.2737 12.8334 10.5833 12.8334C9.89296 12.8334 9.33331 13.393 9.33331 14.0834C9.33331 14.7737 9.89296 15.3334 10.5833 15.3334Z" fill="#0F0F10"/>
</svg>
