<svg width="40" height="40" viewBox="0 0 40 40" fill="none" xmlns="http://www.w3.org/2000/svg">
<g clip-path="url(#clip0_376_835)">
<path d="M25.1452 28.9489L21.3541 25.1896C19.5248 23.3753 18.61 22.4682 17.5604 22.1366C16.6373 21.8451 15.645 21.8557 14.7284 22.1673C13.6861 22.5216 12.7912 23.4482 11.0015 25.3014L1.91838 34.273M25.1452 28.9489L25.9211 28.1796C27.7527 26.3632 28.6684 25.4551 29.7193 25.1235C30.6434 24.8319 31.6364 24.8435 32.5536 25.1562C33.5964 25.5116 34.4911 26.4407 36.2805 28.2987L38.1818 30.2123M25.1452 28.9489L34.2614 38.083M1.91838 34.273C1.9889 34.8457 2.10899 35.2985 2.31361 35.7001C2.74938 36.5553 3.44474 37.2507 4.30004 37.6864C5.27236 38.1819 6.5452 38.1819 9.0909 38.1819H30.9091C32.3961 38.1819 33.4491 38.1819 34.2614 38.083M1.91838 34.273C1.81818 33.4594 1.81818 32.4035 1.81818 30.9091V9.09096C1.81818 6.54528 1.81818 5.27242 2.31361 4.3001C2.74938 3.44481 3.44474 2.74944 4.30004 2.31367C5.27236 1.81824 6.5452 1.81824 9.0909 1.81824H30.9091C33.4548 1.81824 34.7277 1.81824 35.7 2.31367C36.5552 2.74944 37.2507 3.44481 37.6864 4.3001C38.1818 5.27242 38.1818 6.54528 38.1818 9.09096V30.2123M38.1818 30.2123V30.9091C38.1818 33.4548 38.1818 34.7278 37.6864 35.7001C37.2507 36.5553 36.5552 37.2507 35.7 37.6864C35.2957 37.8926 34.8393 38.0128 34.2614 38.083M31.3636 13.1816C31.3636 15.6921 29.3286 17.7271 26.8182 17.7271C24.3077 17.7271 22.2727 15.6921 22.2727 13.1816C22.2727 10.6712 24.3077 8.63617 26.8182 8.63617C29.3286 8.63617 31.3636 10.6712 31.3636 13.1816Z" stroke="#0F0F10" stroke-width="3" stroke-linecap="round" stroke-linejoin="round"/>
</g>
<defs>
<clipPath id="clip0_376_835">
<rect width="40" height="40" fill="white"/>
</clipPath>
</defs>
</svg>
