<svg width="40" height="31" viewBox="0 0 40 31" fill="none" xmlns="http://www.w3.org/2000/svg">
<g clip-path="url(#clip0_377_842)">
<path d="M27.1198 4.82391C27.6506 4.62714 28.2245 4.51965 28.8237 4.51965C31.531 4.51965 33.7257 6.71434 33.7257 9.42161C33.7257 12.1289 31.531 14.3236 28.8237 14.3236C28.2245 14.3236 27.6506 14.2161 27.1198 14.0193" stroke="#0F0F10" stroke-width="3.5" stroke-linecap="round"/>
<path d="M2.35297 28.0491C3.70859 23.5252 7.19606 22.1667 15.0981 22.1667C23 22.1667 26.4875 23.5252 27.8432 28.0491" stroke="#0F0F10" stroke-width="3.5" stroke-linecap="round"/>
<path d="M29.804 20.2059C34.5157 20.3922 36.724 21.4575 37.6471 24.1275" stroke="#0F0F10" stroke-width="3.5" stroke-linecap="round"/>
<path d="M21.9608 9.42158C21.9608 13.2118 18.8882 16.2843 15.098 16.2843C11.3078 16.2843 8.23529 13.2118 8.23529 9.42158C8.23529 5.63139 11.3078 2.55884 15.098 2.55884C18.8882 2.55884 21.9608 5.63139 21.9608 9.42158Z" stroke="#0F0F10" stroke-width="3.5"/>
</g>
<defs>
<clipPath id="clip0_377_842">
<rect width="40" height="30.5882" fill="white" transform="translate(0 0.205933)"/>
</clipPath>
</defs>
</svg>
