<svg width="25" height="25" viewBox="0 0 25 25" fill="none" xmlns="http://www.w3.org/2000/svg">
<g clip-path="url(#clip0_879_3258)">
<path d="M15.7161 18.0932L13.3467 15.7436C12.2033 14.6096 11.6316 14.0427 10.9756 13.8355C10.3987 13.6532 9.77848 13.6599 9.20558 13.8547C8.55416 14.0761 7.99487 14.6552 6.87632 15.8135L1.19935 21.4207M15.7161 18.0932L16.2011 17.6123C17.3458 16.4771 17.9181 15.9095 18.5749 15.7022C19.1525 15.52 19.7731 15.5272 20.3464 15.7227C20.9981 15.9449 21.5573 16.5255 22.6756 17.6868L23.864 18.8828M15.7161 18.0932L21.4137 23.802M1.19935 21.4207C1.24342 21.7787 1.31848 22.0616 1.44636 22.3126C1.71872 22.8471 2.15332 23.2818 2.68788 23.5541C3.29558 23.8637 4.09111 23.8637 5.68217 23.8637H19.3185C20.2479 23.8637 20.906 23.8637 21.4137 23.802M1.19935 21.4207C1.13672 20.9122 1.13672 20.2522 1.13672 19.3183V5.68193C1.13672 4.09088 1.13672 3.29534 1.44636 2.68764C1.71872 2.15308 2.15332 1.71848 2.68788 1.44612C3.29558 1.13647 4.09111 1.13647 5.68217 1.13647H19.3185C20.9096 1.13647 21.7052 1.13647 22.3129 1.44612C22.8474 1.71848 23.282 2.15308 23.5543 2.68764C23.864 3.29534 23.864 4.09088 23.864 5.68193V18.8828M23.864 18.8828V19.3183C23.864 20.9093 23.864 21.7049 23.5543 22.3126C23.282 22.8471 22.8474 23.2818 22.3129 23.5541C22.0602 23.6829 21.7749 23.7581 21.4137 23.802M19.6026 8.23859C19.6026 9.80764 18.3308 11.0795 16.7617 11.0795C15.1927 11.0795 13.9208 9.80764 13.9208 8.23859C13.9208 6.6696 15.1927 5.39768 16.7617 5.39768C18.3308 5.39768 19.6026 6.6696 19.6026 8.23859Z" stroke="white" stroke-width="2" stroke-linecap="round" stroke-linejoin="round"/>
</g>
<defs>
<clipPath id="clip0_879_3258">
<rect width="25" height="25" fill="white"/>
</clipPath>
</defs>
</svg>
