<svg width="12" height="13" viewBox="0 0 12 13" fill="none" xmlns="http://www.w3.org/2000/svg">
<g clip-path="url(#clip0_735_2404)">
<path d="M0.69135 10.7909C0.410175 11.0721 0.410175 11.5279 0.69135 11.8091C0.972524 12.0903 1.42841 12.0903 1.70958 11.8091L0.69135 10.7909ZM6.50956 7.00907C6.79074 6.72788 6.79074 6.27207 6.50956 5.99089C6.22837 5.70971 5.77256 5.70971 5.49138 5.99089L6.50956 7.00907ZM5.49138 5.99089C5.2102 6.27207 5.2102 6.72788 5.49138 7.00907C5.77256 7.29025 6.22837 7.29025 6.50956 7.00907L5.49138 5.99089ZM11.3096 2.2091C11.5907 1.92792 11.5907 1.47204 11.3096 1.19086C11.0284 0.909687 10.5726 0.909687 10.2914 1.19086L11.3096 2.2091ZM6.50956 5.99089C6.22837 5.70971 5.77256 5.70971 5.49138 5.99089C5.2102 6.27207 5.2102 6.72788 5.49138 7.00907L6.50956 5.99089ZM10.2914 11.8091C10.5726 12.0903 11.0284 12.0903 11.3096 11.8091C11.5907 11.5279 11.5907 11.0721 11.3096 10.7909L10.2914 11.8091ZM5.49138 7.00907C5.77256 7.29025 6.22837 7.29025 6.50956 7.00907C6.79074 6.72788 6.79074 6.27207 6.50956 5.99089L5.49138 7.00907ZM1.70958 1.19086C1.42841 0.909687 0.972524 0.909687 0.69135 1.19086C0.410175 1.47204 0.410175 1.92792 0.69135 2.2091L1.70958 1.19086ZM1.70958 11.8091L6.50956 7.00907L5.49138 5.99089L0.69135 10.7909L1.70958 11.8091ZM6.50956 7.00907L11.3096 2.2091L10.2914 1.19086L5.49138 5.99089L6.50956 7.00907ZM5.49138 7.00907L10.2914 11.8091L11.3096 10.7909L6.50956 5.99089L5.49138 7.00907ZM6.50956 5.99089L1.70958 1.19086L0.69135 2.2091L5.49138 7.00907L6.50956 5.99089Z" fill="#616161"/>
</g>
<defs>
<clipPath id="clip0_735_2404">
<rect width="12" height="12" fill="white" transform="translate(0 0.5)"/>
</clipPath>
</defs>
</svg>
