<svg width="44" height="44" viewBox="0 0 44 44" fill="none" xmlns="http://www.w3.org/2000/svg">
<path d="M0 6C0 2.68629 2.68629 0 6 0H38C41.3137 0 44 2.68629 44 6V38C44 41.3137 41.3137 44 38 44H6C2.68629 44 0 41.3137 0 38V6Z" fill="#F4F4F4"/>
<path d="M12 15.75H32" stroke="#0F0F10" stroke-width="3" stroke-linecap="round" stroke-linejoin="round"/>
<path d="M14.5 19.5L16.6268 31.1972C16.8429 32.386 17.8782 33.25 19.0864 33.25H24.9135C26.1218 33.25 27.1571 32.3859 27.3732 31.1972L29.5 19.5" stroke="#0F0F10" stroke-width="3" stroke-linecap="round" stroke-linejoin="round"/>
<path d="M18.25 13.25C18.25 11.8693 19.3693 10.75 20.75 10.75H23.25C24.6307 10.75 25.75 11.8693 25.75 13.25V15.75H18.25V13.25Z" stroke="#0F0F10" stroke-width="3" stroke-linecap="round" stroke-linejoin="round"/>
</svg>
