<svg width="20" height="20" viewBox="0 0 20 20" fill="none" xmlns="http://www.w3.org/2000/svg">
<path d="M1.15147 17.1513C0.682847 17.62 0.682847 18.3796 1.15147 18.8483C1.6201 19.3169 2.3799 19.3169 2.84853 18.8483L1.15147 17.1513ZM10.8485 10.8483C11.3171 10.3796 11.3171 9.61996 10.8485 9.15132C10.3798 8.68268 9.62016 8.68268 9.15152 9.15132L10.8485 10.8483ZM9.15152 9.15132C8.68288 9.61996 8.68288 10.3796 9.15152 10.8483C9.62016 11.3169 10.3798 11.3169 10.8485 10.8483L9.15152 9.15132ZM18.8485 2.84833C19.3171 2.37971 19.3171 1.6199 18.8485 1.15127C18.3798 0.682649 17.6202 0.682649 17.1515 1.15127L18.8485 2.84833ZM10.8485 9.15132C10.3798 8.68268 9.62016 8.68268 9.15152 9.15132C8.68288 9.61996 8.68288 10.3796 9.15152 10.8483L10.8485 9.15132ZM17.1515 18.8483C17.6202 19.3169 18.3798 19.3169 18.8485 18.8483C19.3171 18.3796 19.3171 17.62 18.8485 17.1513L17.1515 18.8483ZM9.15152 10.8483C9.62016 11.3169 10.3798 11.3169 10.8485 10.8483C11.3171 10.3796 11.3171 9.61996 10.8485 9.15132L9.15152 10.8483ZM2.84853 1.15127C2.3799 0.682649 1.6201 0.682649 1.15147 1.15127C0.682847 1.6199 0.682847 2.37971 1.15147 2.84833L2.84853 1.15127ZM2.84853 18.8483L10.8485 10.8483L9.15152 9.15132L1.15147 17.1513L2.84853 18.8483ZM10.8485 10.8483L18.8485 2.84833L17.1515 1.15127L9.15152 9.15132L10.8485 10.8483ZM9.15152 10.8483L17.1515 18.8483L18.8485 17.1513L10.8485 9.15132L9.15152 10.8483ZM10.8485 9.15132L2.84853 1.15127L1.15147 2.84833L9.15152 10.8483L10.8485 9.15132Z" fill="#616161"/>
</svg>
