<svg width="15" height="21" viewBox="0 0 15 21" fill="none" xmlns="http://www.w3.org/2000/svg">
<g clip-path="url(#clip0_501_1148)">
<path d="M3.50001 19.627L3.50001 5.93648M3.50001 5.93648C4.76022 5.93648 5.78175 4.91494 5.78175 3.65473C5.78175 2.39452 4.76022 1.37299 3.50001 1.37299C2.2398 1.37299 1.21826 2.39452 1.21826 3.65473C1.21826 4.91494 2.2398 5.93648 3.50001 5.93648ZM11.4861 15.0635L11.4861 1.37299M11.4861 15.0635C10.2259 15.0635 9.20437 16.085 9.20437 17.3452C9.20437 18.6054 10.2259 19.627 11.4861 19.627C12.7463 19.627 13.7679 18.6054 13.7679 17.3452C13.7679 16.085 12.7463 15.0635 11.4861 15.0635Z" stroke="black" stroke-width="2" stroke-linecap="round"/>
</g>
<defs>
<clipPath id="clip0_501_1148">
<rect width="21" height="15" fill="white" transform="matrix(0 -1 1 0 0 21)"/>
</clipPath>
</defs>
</svg>
