<svg width="351" height="350" viewBox="0 0 351 350" fill="none" xmlns="http://www.w3.org/2000/svg">
<path d="M192.781 17.0625C165.481 17.0625 140.281 26.8625 122.781 45.0625C115.081 52.7625 109.481 61.1188 105.281 70.2188C98.2812 67.4188 88.5687 68.075 82.9687 74.375C80.1687 77.875 71.025 89.8625 69.625 101.062C68.225 110.162 66.8687 140.875 75.9687 161.875C78.7687 168.175 82.0937 174.562 85.5937 181.562C91.8937 193.462 98.9812 206.062 101.781 216.562C98.9812 219.363 94.6937 220.806 89.0937 222.906C68.0937 230.606 35.9375 241.806 35.9375 331.406H42.9375H49.9375H290.781H297.781H304.781C304.781 313.906 301.281 304.763 297.781 297.062C297.081 297.062 296.469 295.619 296.469 294.219C292.269 282.319 281.594 250.031 281.594 239.531C281.594 227.631 287.281 211.619 297.781 192.719C299.881 189.219 301.369 186.331 303.469 183.531C311.169 169.531 316.637 159.906 315.937 149.406C315.237 139.606 302.069 84.9625 299.969 80.0625C295.769 73.7625 290.081 70.2625 283.781 69.5625C281.681 69.5625 279.537 70.175 277.437 70.875C273.237 61.775 266.981 52.7625 259.281 45.0625C241.781 26.8625 217.981 17.0625 192.781 17.0625ZM192.125 31.7188C213.825 31.7188 234.081 40.1625 248.781 55.5625C264.181 70.9625 271.969 90.5188 271.969 112.219C271.969 141.619 262.081 159.163 252.281 178.062C243.881 193.462 236.094 208.863 232.594 230.562C229.094 252.262 217.325 264.031 199.125 264.031C183.025 264.031 170.381 257.819 164.781 227.719C160.581 205.319 149.469 192.806 138.969 180.906C124.969 164.806 111.669 150.019 110.969 112.219C110.969 104.519 111.494 97.5625 113.594 90.5625C114.294 89.8625 114.469 89.1188 114.469 87.7188V87.0625C117.969 74.4625 123.569 63.9625 131.969 55.5625C147.369 40.1625 168.325 31.7188 192.125 31.7188ZM96.9687 83.5625C98.3687 83.5625 98.8937 84.2188 99.5937 84.2188C97.4937 92.6188 96.0937 101.806 96.0937 110.906C96.7937 154.306 112.894 172.462 127.594 188.562C132.494 194.163 136.781 198.931 140.281 204.531V205.406C142.381 214.506 139.625 220.631 136.125 229.031C133.325 235.331 131.094 241.019 131.094 248.719C131.794 250.119 131.794 252.831 131.094 257.031C130.394 271.031 129.781 294.175 129.781 305.375C129.781 313.775 117.837 316.663 109.437 318.062C111.537 297.062 116.481 240.975 115.781 224.875C115.081 209.475 106.069 192.675 96.9687 175.875C93.4687 168.875 89.925 162.663 87.125 157.062C79.425 138.863 80.6937 110.206 82.0937 103.906C82.7937 97.6062 88.3937 89.1188 92.5937 84.2188C93.2937 84.2188 94.8687 83.5625 96.9687 83.5625ZM282.469 84.2188H283.781C284.481 84.2188 285.925 85.0062 286.625 86.4062C288.025 90.6062 299.881 140.219 301.281 150.719C301.981 157.019 297.781 164.631 290.781 176.531C289.381 179.331 287.194 182.875 285.094 186.375C277.394 201.075 267.594 222.206 267.594 240.406C267.594 253.706 279.625 288.619 283.125 297.719C282.425 300.519 278.881 308.306 269.781 313.906C259.981 289.406 245.281 243.119 248.781 224.219C252.281 208.819 258.625 197.006 265.625 184.406C276.125 164.806 286.625 144.419 286.625 112.219C286.625 102.419 285.269 93.3187 282.469 84.2188ZM220.781 115.719C216.915 115.719 213.781 118.853 213.781 122.719C213.781 126.585 216.915 129.719 220.781 129.719C224.647 129.719 227.781 126.585 227.781 122.719C227.781 118.853 224.647 115.719 220.781 115.719ZM143.781 122.719C139.915 122.719 136.781 125.853 136.781 129.719C136.781 133.585 139.915 136.719 143.781 136.719C147.647 136.719 150.781 133.585 150.781 129.719C150.781 125.853 147.647 122.719 143.781 122.719ZM201.969 146.562C198.876 146.562 196.281 148.938 196.281 152.031C196.281 155.124 198.876 157.719 201.969 157.719C205.062 157.719 207.437 155.124 207.437 152.031C207.437 148.938 205.062 146.562 201.969 146.562ZM175.937 149.406C172.845 149.406 170.469 151.782 170.469 154.875C170.469 157.968 172.845 160.562 175.937 160.562C179.03 160.562 181.625 157.968 181.625 154.875C181.625 151.782 179.03 149.406 175.937 149.406ZM186.437 170.406C182.937 170.406 179.394 171.762 176.594 174.562C171.694 179.462 170.425 188.562 171.125 202.562C172.525 224.962 182.981 232.531 192.781 232.531C197.681 232.531 201.094 231.219 204.594 227.719C209.494 222.819 211.637 214.419 210.937 203.219C210.237 186.419 198.337 170.406 186.437 170.406ZM171.125 269.062C178.825 274.663 187.925 277.375 199.125 277.375C207.525 277.375 215.137 275.406 221.437 271.906L219.469 278.031C213.869 293.431 199.869 310.931 194.969 313.031C192.869 310.931 186.437 304.062 172.437 272.562C171.737 271.163 171.825 270.462 171.125 269.062Z" fill="#0F0F10"/>
</svg>
