<svg width="26" height="25" viewBox="0 0 26 25" fill="none" xmlns="http://www.w3.org/2000/svg">
<g clip-path="url(#clip0_590_1628)">
<path d="M16.2156 18.0934L13.8462 15.7438C12.7029 14.6099 12.1311 14.043 11.4752 13.8357C10.8982 13.6535 10.278 13.6602 9.70509 13.8549C9.05367 14.0763 8.49438 14.6555 7.37583 15.8137L1.69886 21.421M16.2156 18.0934L16.7006 17.6126C17.8453 16.4773 18.4176 15.9097 19.0744 15.7025C19.652 15.5202 20.2726 15.5275 20.8459 15.7229C21.4976 15.9451 22.0568 16.5258 23.1752 17.687L24.3635 18.883M16.2156 18.0934L21.9132 23.8022M1.69886 21.421C1.74293 21.7789 1.81799 22.0619 1.94588 22.3129C2.21823 22.8474 2.65284 23.282 3.1874 23.5543C3.79509 23.864 4.59062 23.864 6.18168 23.864H19.818C20.7475 23.864 21.4055 23.864 21.9132 23.8022M1.69886 21.421C1.63623 20.9124 1.63623 20.2525 1.63623 19.3185V5.68217C1.63623 4.09112 1.63623 3.29558 1.94588 2.68788C2.21823 2.15332 2.65284 1.71872 3.1874 1.44636C3.79509 1.13672 4.59062 1.13672 6.18168 1.13672H19.818C21.4091 1.13672 22.2047 1.13672 22.8124 1.44636C23.3469 1.71872 23.7815 2.15332 24.0538 2.68788C24.3635 3.29558 24.3635 4.09112 24.3635 5.68217V18.883M24.3635 18.883V19.3185C24.3635 20.9096 24.3635 21.7052 24.0538 22.3129C23.7815 22.8474 23.3469 23.282 22.8124 23.5543C22.5597 23.6832 22.2744 23.7583 21.9132 23.8022M20.1021 8.23884C20.1021 9.80788 18.8303 11.0798 17.2612 11.0798C15.6922 11.0798 14.4203 9.80788 14.4203 8.23884C14.4203 6.66984 15.6922 5.39793 17.2612 5.39793C18.8303 5.39793 20.1021 6.66984 20.1021 8.23884Z" stroke="white" stroke-width="2" stroke-linecap="round" stroke-linejoin="round"/>
</g>
<defs>
<clipPath id="clip0_590_1628">
<rect width="25" height="25" fill="white" transform="translate(0.5)"/>
</clipPath>
</defs>
</svg>
