
<svg width="36" height="35" viewBox="0 0 36 35" fill="none" xmlns="http://www.w3.org/2000/svg">
<path d="M28.2085 14.5835C28.2085 9.8818 25.0294 5.92097 20.704 4.7368C20.4861 4.19826 20.1123 3.73705 19.6306 3.4123C19.1489 3.08756 18.5812 2.91406 18.0002 2.91406C17.4192 2.91406 16.8515 3.08756 16.3698 3.4123C15.8881 3.73705 15.5143 4.19826 15.2965 4.7368C14.4885 4.95843 13.7111 5.27927 12.9821 5.69201L15.1579 7.86638C16.2667 7.39704 17.4745 7.20958 18.6735 7.32076C19.8724 7.43193 21.0251 7.83827 22.0287 8.5035C23.0323 9.16873 23.8556 10.0721 24.425 11.1331C24.9944 12.194 25.2922 13.3794 25.2919 14.5835V18.0003L28.2085 20.917V14.5835ZM5.13041 25.4247L7.79187 21.4333V14.5835C7.79187 13.0522 8.12875 11.5997 8.73395 10.296L5.3025 6.86451C5.03685 6.58946 4.88986 6.22109 4.89318 5.83871C4.8965 5.45634 5.04987 5.09058 5.32026 4.82019C5.59065 4.5498 5.95642 4.39643 6.33879 4.39311C6.72116 4.38979 7.08953 4.53678 7.36458 4.80243L30.6979 28.1358C30.9636 28.4108 31.1106 28.7792 31.1072 29.1615C31.1039 29.5439 30.9505 29.9097 30.6801 30.1801C30.4098 30.4505 30.044 30.6038 29.6616 30.6072C29.2793 30.6105 28.9109 30.4635 28.6358 30.1978L26.1465 27.7085H23.0533C22.8777 28.9234 22.2703 30.0344 21.3423 30.838C20.4142 31.6415 19.2278 32.0838 18.0002 32.0838C16.7726 32.0838 15.5862 31.6415 14.6581 30.838C13.7301 30.0344 13.1227 28.9234 12.9471 27.7085H6.3525C6.01782 27.7137 5.69165 27.6029 5.42937 27.3949C5.139 27.166 4.94654 26.8352 4.89103 26.4696C4.83551 26.104 4.92109 25.7295 5.13041 25.4247ZM9.06062 24.7918H23.2312L10.9958 12.5564C10.8053 13.2152 10.7086 13.8976 10.7085 14.5835V21.8751C10.7086 22.1632 10.6234 22.4448 10.4635 22.6845L9.06062 24.7918ZM15.9381 27.7085C16.0884 28.1357 16.3677 28.5058 16.7373 28.7676C17.1069 29.0294 17.5487 29.17 18.0017 29.17C18.4546 29.17 18.8964 29.0294 19.266 28.7676C19.6357 28.5058 19.9149 28.1357 20.0652 27.7085H15.9381Z" fill="#0D0D0D"/>
</svg>
