<svg width="28" height="29" viewBox="0 0 24 26" fill="none" xmlns="http://www.w3.org/2000/svg">
<path d="M9.63104 1.59704C9.82195 1.12518 10.1494 0.721082 10.5715 0.436546C10.9936 0.15201 11.491 0 12 0C12.509 0 13.0064 0.15201 13.4285 0.436546C13.8506 0.721082 14.178 1.12518 14.369 1.59704C16.2584 2.11668 17.9251 3.24222 19.113 4.8008C20.3008 6.35938 20.9442 8.26481 20.9443 10.2245V16.2261L23.2851 19.7373C23.4135 19.9298 23.4873 20.1535 23.4985 20.3845C23.5097 20.6156 23.458 20.8453 23.3489 21.0493C23.2397 21.2533 23.0773 21.4238 22.8788 21.5427C22.6804 21.6615 22.4534 21.7243 22.2221 21.7243H16.4274C16.2736 22.7888 15.7414 23.7622 14.9282 24.4662C14.1151 25.1703 13.0756 25.5578 12 25.5578C10.9244 25.5578 9.88488 25.1703 9.07176 24.4662C8.25865 23.7622 7.72642 22.7888 7.57257 21.7243H1.77795C1.54662 21.7243 1.31962 21.6615 1.12117 21.5427C0.922719 21.4238 0.76026 21.2533 0.651128 21.0493C0.541995 20.8453 0.490282 20.6156 0.501505 20.3845C0.512728 20.1535 0.586467 19.9298 0.714854 19.7373L3.0557 16.2261V10.2245C3.0557 6.10496 5.84121 2.63458 9.63104 1.59704ZM10.1933 21.7243C10.3252 22.0982 10.5699 22.422 10.8936 22.651C11.2173 22.8801 11.6041 23.003 12.0006 23.003C12.3972 23.003 12.784 22.8801 13.1077 22.651C13.4314 22.422 13.6761 22.0982 13.808 21.7243H10.192H10.1933ZM12 3.83567C10.3056 3.83567 8.68058 4.50877 7.48245 5.7069C6.28432 6.90503 5.61122 8.53004 5.61122 10.2245V16.6132C5.61127 16.8656 5.53658 17.1124 5.39655 17.3224L4.16607 19.1687H19.8326L18.6022 17.3224C18.4626 17.1122 18.3883 16.8655 18.3888 16.6132V10.2245C18.3888 8.53004 17.7157 6.90503 16.5176 5.7069C15.3194 4.50877 13.6944 3.83567 12 3.83567Z" fill="#0F0F10"/>
</svg>
