<svg width="20" height="20" viewBox="0 0 20 20" fill="none" xmlns="http://www.w3.org/2000/svg">
<g clip-path="url(#clip0_576_2204)">
<path d="M1.15127 17.1513C0.682649 17.62 0.682649 18.3796 1.15127 18.8483C1.6199 19.3169 2.3797 19.3169 2.84833 18.8483L1.15127 17.1513ZM10.8483 10.8483C11.3169 10.3796 11.3169 9.61996 10.8483 9.15132C10.3796 8.68268 9.61996 8.68268 9.15132 9.15132L10.8483 10.8483ZM9.15132 9.15132C8.68268 9.61996 8.68268 10.3796 9.15132 10.8483C9.61996 11.3169 10.3796 11.3169 10.8483 10.8483L9.15132 9.15132ZM18.8483 2.84833C19.3169 2.37971 19.3169 1.6199 18.8483 1.15127C18.3796 0.682649 17.62 0.682649 17.1513 1.15127L18.8483 2.84833ZM10.8483 9.15132C10.3796 8.68268 9.61996 8.68268 9.15132 9.15132C8.68268 9.61996 8.68268 10.3796 9.15132 10.8483L10.8483 9.15132ZM17.1513 18.8483C17.62 19.3169 18.3796 19.3169 18.8483 18.8483C19.3169 18.3796 19.3169 17.62 18.8483 17.1513L17.1513 18.8483ZM9.15132 10.8483C9.61996 11.3169 10.3796 11.3169 10.8483 10.8483C11.3169 10.3796 11.3169 9.61996 10.8483 9.15132L9.15132 10.8483ZM2.84833 1.15127C2.3797 0.682649 1.6199 0.682649 1.15127 1.15127C0.682649 1.6199 0.682649 2.37971 1.15127 2.84833L2.84833 1.15127ZM2.84833 18.8483L10.8483 10.8483L9.15132 9.15132L1.15127 17.1513L2.84833 18.8483ZM10.8483 10.8483L18.8483 2.84833L17.1513 1.15127L9.15132 9.15132L10.8483 10.8483ZM9.15132 10.8483L17.1513 18.8483L18.8483 17.1513L10.8483 9.15132L9.15132 10.8483ZM10.8483 9.15132L2.84833 1.15127L1.15127 2.84833L9.15132 10.8483L10.8483 9.15132Z" fill="#616161"/>
</g>
<defs>
<clipPath id="clip0_576_2204">
<rect width="20" height="20" fill="white"/>
</clipPath>
</defs>
</svg>
