<svg width="52" height="52" viewBox="0 0 52 52" fill="none" xmlns="http://www.w3.org/2000/svg">
<rect width="52" height="52" rx="6" fill="#2B2931" fill-opacity="0.4"/>
<g clip-path="url(#clip0_288_613)">
<path d="M28.8299 30.9219L26.7448 28.8542C25.7386 27.8564 25.2355 27.3575 24.6583 27.1751C24.1505 27.0147 23.6048 27.0206 23.1006 27.192C22.5273 27.3869 22.0352 27.8965 21.0508 28.9157L16.0551 33.8501M28.8299 30.9219L29.2566 30.4987C30.264 29.4997 30.7676 29.0003 31.3456 28.8179C31.8539 28.6575 32.4 28.6639 32.9045 28.8359C33.478 29.0314 33.9701 29.5424 34.9543 30.5642L36 31.6168M28.8299 30.9219L33.8437 35.9456M16.0551 33.8501C16.0939 34.1651 16.1599 34.4141 16.2725 34.635C16.5122 35.1054 16.8946 35.4879 17.365 35.7275C17.8998 36 18.5999 36 20 36H32C32.8179 36 33.397 36 33.8437 35.9456M16.0551 33.8501C16 33.4026 16 32.8219 16 32V20C16 18.5999 16 17.8998 16.2725 17.365C16.5122 16.8946 16.8946 16.5122 17.365 16.2725C17.8998 16 18.5999 16 20 16H32C33.4001 16 34.1003 16 34.635 16.2725C35.1054 16.5122 35.4879 16.8946 35.7275 17.365C36 17.8998 36 18.5999 36 20V31.6168M36 31.6168V32C36 33.4001 36 34.1003 35.7275 34.635C35.4879 35.1054 35.1054 35.4879 34.635 35.7275C34.4126 35.8409 34.1616 35.907 33.8437 35.9456M32.25 22.2499C32.25 23.6306 31.1307 24.7499 29.75 24.7499C28.3693 24.7499 27.25 23.6306 27.25 22.2499C27.25 20.8692 28.3693 19.7499 29.75 19.7499C31.1307 19.7499 32.25 20.8692 32.25 22.2499Z" stroke="white" stroke-width="2" stroke-linecap="round" stroke-linejoin="round"/>
</g>
<defs>
<clipPath id="clip0_288_613">
<rect width="22" height="22" fill="white" transform="translate(15 15)"/>
</clipPath>
</defs>
</svg>
