<svg width="263" height="43" viewBox="0 0 263 43" fill="none" xmlns="http://www.w3.org/2000/svg">
<rect width="263" height="43" rx="6" fill="#2B2931" fill-opacity="0.4"/>
<g clip-path="url(#clip0_288_609)">
<path d="M37.8299 26.4219L35.7448 24.3542C34.7386 23.3564 34.2355 22.8575 33.6583 22.6751C33.1505 22.5147 32.6048 22.5206 32.1006 22.692C31.5273 22.8869 31.0352 23.3965 30.0508 24.4157L25.0551 29.3501M37.8299 26.4219L38.2566 25.9987C39.264 24.9997 39.7676 24.5003 40.3456 24.3179C40.8539 24.1575 41.4 24.1639 41.9045 24.3359C42.478 24.5314 42.9701 25.0424 43.9543 26.0642L45 27.1168M37.8299 26.4219L42.8437 31.4456M25.0551 29.3501C25.0939 29.6651 25.1599 29.9141 25.2725 30.135C25.5122 30.6054 25.8946 30.9879 26.365 31.2275C26.8998 31.5 27.5999 31.5 29 31.5H41C41.8179 31.5 42.397 31.5 42.8437 31.4456M25.0551 29.3501C25 28.9026 25 28.3219 25 27.5V15.5C25 14.0999 25 13.3998 25.2725 12.865C25.5122 12.3946 25.8946 12.0122 26.365 11.7725C26.8998 11.5 27.5999 11.5 29 11.5H41C42.4001 11.5 43.1003 11.5 43.635 11.7725C44.1054 12.0122 44.4879 12.3946 44.7275 12.865C45 13.3998 45 14.0999 45 15.5V27.1168M45 27.1168V27.5C45 28.9001 45 29.6003 44.7275 30.135C44.4879 30.6054 44.1054 30.9879 43.635 31.2275C43.4126 31.3409 43.1616 31.407 42.8437 31.4456M41.25 17.7499C41.25 19.1306 40.1307 20.2499 38.75 20.2499C37.3693 20.2499 36.25 19.1306 36.25 17.7499C36.25 16.3692 37.3693 15.2499 38.75 15.2499C40.1307 15.2499 41.25 16.3692 41.25 17.7499Z" stroke="white" stroke-width="2" stroke-linecap="round" stroke-linejoin="round"/>
</g>
<path d="M60.0918 23.3906L65.8047 13.7812H68.7344V28H65.8047V18.3906L60.0918 28H57.1621V13.7812H60.0918V23.3906ZM75.8047 22.9609H73.7148V21.7012H75.209C75.5605 21.7012 75.8405 21.6523 76.0488 21.5547C76.2637 21.457 76.4167 21.3203 76.5078 21.1445C76.6055 20.9622 76.6543 20.7572 76.6543 20.5293C76.6543 20.3275 76.612 20.1354 76.5273 19.9531C76.4492 19.7643 76.306 19.6113 76.0977 19.4941C75.8958 19.3704 75.6094 19.3086 75.2383 19.3086C74.9323 19.3086 74.6589 19.3542 74.418 19.4453C74.1836 19.5365 73.998 19.6699 73.8613 19.8457C73.7311 20.015 73.666 20.2201 73.666 20.4609H70.8438C70.8438 19.7904 71.0358 19.2174 71.4199 18.7422C71.804 18.2604 72.3184 17.8926 72.9629 17.6387C73.6074 17.3783 74.3138 17.248 75.082 17.248C75.7526 17.248 76.3581 17.3164 76.8984 17.4531C77.4388 17.5833 77.901 17.7786 78.2852 18.0391C78.6693 18.2995 78.9622 18.6217 79.1641 19.0059C79.3724 19.3835 79.4766 19.8229 79.4766 20.3242C79.4766 20.6823 79.3919 21.0208 79.2227 21.3398C79.0534 21.6589 78.8092 21.9421 78.4902 22.1895C78.1712 22.4303 77.7839 22.6191 77.3281 22.7559C76.8789 22.8926 76.3711 22.9609 75.8047 22.9609ZM73.7148 22.2578H75.8047C76.4362 22.2578 76.9896 22.3197 77.4648 22.4434C77.9466 22.5605 78.3503 22.7363 78.6758 22.9707C79.0013 23.2051 79.2454 23.4948 79.4082 23.8398C79.5775 24.1784 79.6621 24.569 79.6621 25.0117C79.6621 25.513 79.5514 25.9622 79.3301 26.3594C79.1087 26.75 78.793 27.082 78.3828 27.3555C77.9727 27.6289 77.4876 27.8372 76.9277 27.9805C76.3678 28.1237 75.7526 28.1953 75.082 28.1953C74.3659 28.1953 73.6693 28.0781 72.9922 27.8438C72.3151 27.6094 71.7585 27.248 71.3223 26.7598C70.8926 26.2715 70.6777 25.6432 70.6777 24.875H73.5C73.5 25.0964 73.5651 25.3047 73.6953 25.5C73.8255 25.6953 74.0208 25.8516 74.2812 25.9688C74.5417 26.0794 74.8639 26.1348 75.248 26.1348C75.6322 26.1348 75.9414 26.0729 76.1758 25.9492C76.4102 25.8255 76.5794 25.6628 76.6836 25.4609C76.7943 25.2526 76.8496 25.0378 76.8496 24.8164C76.8496 24.5039 76.7878 24.25 76.6641 24.0547C76.5469 23.8594 76.3646 23.7161 76.1172 23.625C75.8763 23.5339 75.5736 23.4883 75.209 23.4883H73.7148V22.2578ZM87.8164 24.7676L90.5898 17.4336H92.8848L88.7637 28H86.8691L82.7676 17.4336H85.0625L87.8164 24.7676ZM84.3887 17.4336V28H81.5762V17.4336H84.3887ZM91.3125 28V17.4336H94.125V28H91.3125ZM101.449 28.1953C100.629 28.1953 99.8932 28.0651 99.2422 27.8047C98.5911 27.5378 98.0378 27.1699 97.582 26.7012C97.1328 26.2324 96.7878 25.6888 96.5469 25.0703C96.306 24.4453 96.1855 23.7812 96.1855 23.0781V22.6875C96.1855 21.8867 96.2995 21.1543 96.5273 20.4902C96.7552 19.8262 97.0807 19.25 97.5039 18.7617C97.9336 18.2734 98.4544 17.8991 99.0664 17.6387C99.6784 17.3717 100.368 17.2383 101.137 17.2383C101.885 17.2383 102.549 17.362 103.129 17.6094C103.708 17.8568 104.193 18.2083 104.584 18.6641C104.981 19.1198 105.281 19.6667 105.482 20.3047C105.684 20.9362 105.785 21.6393 105.785 22.4141V23.5859H97.3867V21.7109H103.021V21.4961C103.021 21.1055 102.95 20.7572 102.807 20.4512C102.67 20.1387 102.462 19.8913 102.182 19.709C101.902 19.5267 101.544 19.4355 101.107 19.4355C100.736 19.4355 100.417 19.5169 100.15 19.6797C99.8835 19.8424 99.6654 20.0703 99.4961 20.3633C99.3333 20.6562 99.2096 21.0013 99.125 21.3984C99.0469 21.7891 99.0078 22.2188 99.0078 22.6875V23.0781C99.0078 23.5013 99.0664 23.8919 99.1836 24.25C99.3073 24.6081 99.4798 24.9173 99.7012 25.1777C99.929 25.4382 100.202 25.64 100.521 25.7832C100.847 25.9264 101.215 25.998 101.625 25.998C102.133 25.998 102.605 25.9004 103.041 25.7051C103.484 25.5033 103.865 25.2005 104.184 24.7969L105.551 26.2812C105.329 26.6003 105.027 26.9062 104.643 27.1992C104.265 27.4922 103.809 27.7331 103.275 27.9219C102.742 28.1042 102.133 28.1953 101.449 28.1953ZM114.623 21.7012V23.8887H109.252V21.7012H114.623ZM110.189 17.4336V28H107.377V17.4336H110.189ZM116.527 17.4336V28H113.705V17.4336H116.527ZM121.518 24.0742L125.062 17.4336H127.875V28H125.062V21.3496L121.518 28H118.705V17.4336H121.518V24.0742ZM135.424 17.4336V28H132.602V17.4336H135.424ZM138.822 17.4336V19.6113H129.252V17.4336H138.822ZM142.201 20.5684H145.268C146.231 20.5684 147.051 20.7279 147.729 21.0469C148.412 21.3594 148.933 21.7956 149.291 22.3555C149.656 22.9154 149.838 23.5632 149.838 24.2988C149.838 24.8327 149.734 25.3275 149.525 25.7832C149.324 26.2324 149.027 26.623 148.637 26.9551C148.246 27.2871 147.768 27.5443 147.201 27.7266C146.635 27.9089 145.99 28 145.268 28H140.443V17.4336H143.266V25.8125H145.268C145.691 25.8125 146.029 25.7441 146.283 25.6074C146.544 25.4642 146.732 25.2786 146.85 25.0508C146.973 24.8229 147.035 24.5755 147.035 24.3086C147.035 24.0286 146.973 23.7747 146.85 23.5469C146.732 23.3125 146.544 23.1237 146.283 22.9805C146.029 22.8372 145.691 22.7656 145.268 22.7656H142.201V20.5684ZM155.961 22.8242V22.6191C155.961 21.8444 156.072 21.1315 156.293 20.4805C156.514 19.8229 156.837 19.2533 157.26 18.7715C157.683 18.2897 158.204 17.9154 158.822 17.6484C159.441 17.375 160.15 17.2383 160.951 17.2383C161.752 17.2383 162.465 17.375 163.09 17.6484C163.715 17.9154 164.239 18.2897 164.662 18.7715C165.092 19.2533 165.417 19.8229 165.639 20.4805C165.86 21.1315 165.971 21.8444 165.971 22.6191V22.8242C165.971 23.5924 165.86 24.3053 165.639 24.9629C165.417 25.6139 165.092 26.1836 164.662 26.6719C164.239 27.1536 163.718 27.528 163.1 27.7949C162.481 28.0618 161.771 28.1953 160.971 28.1953C160.17 28.1953 159.457 28.0618 158.832 27.7949C158.214 27.528 157.689 27.1536 157.26 26.6719C156.837 26.1836 156.514 25.6139 156.293 24.9629C156.072 24.3053 155.961 23.5924 155.961 22.8242ZM158.773 22.6191V22.8242C158.773 23.2669 158.812 23.6803 158.891 24.0645C158.969 24.4486 159.092 24.7871 159.262 25.0801C159.438 25.3665 159.665 25.5911 159.945 25.7539C160.225 25.9167 160.567 25.998 160.971 25.998C161.361 25.998 161.697 25.9167 161.977 25.7539C162.257 25.5911 162.481 25.3665 162.65 25.0801C162.82 24.7871 162.943 24.4486 163.021 24.0645C163.106 23.6803 163.148 23.2669 163.148 22.8242V22.6191C163.148 22.1895 163.106 21.7858 163.021 21.4082C162.943 21.0241 162.816 20.6855 162.641 20.3926C162.471 20.0931 162.247 19.8587 161.967 19.6895C161.687 19.5202 161.348 19.4355 160.951 19.4355C160.554 19.4355 160.215 19.5202 159.936 19.6895C159.662 19.8587 159.438 20.0931 159.262 20.3926C159.092 20.6855 158.969 21.0241 158.891 21.4082C158.812 21.7858 158.773 22.1895 158.773 22.6191ZM174.174 12.7852H176.449C176.449 13.3125 176.384 13.765 176.254 14.1426C176.124 14.5137 175.915 14.8327 175.629 15.0996C175.342 15.36 174.958 15.5814 174.477 15.7637C173.995 15.946 173.399 16.1022 172.689 16.2324C172.143 16.3431 171.667 16.5254 171.264 16.7793C170.867 17.0332 170.538 17.3815 170.277 17.8242C170.023 18.2604 169.841 18.8138 169.73 19.4844C169.62 20.1484 169.581 20.9492 169.613 21.8867V22.3555L167.426 22.6582V22.1895C167.432 20.9134 167.546 19.8034 167.768 18.8594C167.995 17.9154 168.318 17.1211 168.734 16.4766C169.151 15.8255 169.652 15.3079 170.238 14.9238C170.824 14.5332 171.475 14.2598 172.191 14.1035C172.673 13.9993 173.057 13.8984 173.344 13.8008C173.637 13.6966 173.848 13.5664 173.979 13.4102C174.109 13.2539 174.174 13.0456 174.174 12.7852ZM172.943 18.0293C173.66 18.0293 174.294 18.153 174.848 18.4004C175.401 18.6413 175.867 18.9831 176.244 19.4258C176.622 19.8685 176.908 20.3893 177.104 20.9883C177.299 21.5872 177.396 22.2415 177.396 22.9512V23.1562C177.396 23.8789 177.286 24.5495 177.064 25.168C176.85 25.7799 176.531 26.3138 176.107 26.7695C175.684 27.2253 175.163 27.5801 174.545 27.834C173.926 28.0814 173.22 28.2051 172.426 28.2051C171.625 28.2051 170.912 28.0716 170.287 27.8047C169.669 27.5312 169.145 27.1504 168.715 26.6621C168.292 26.1673 167.969 25.5911 167.748 24.9336C167.533 24.2695 167.426 23.5469 167.426 22.7656V22.5508C167.426 22.4401 167.475 22.3327 167.572 22.2285C167.676 22.1178 167.797 21.9941 167.934 21.8574C168.077 21.7207 168.204 21.5482 168.314 21.3398C168.705 20.6172 169.132 20.0117 169.594 19.5234C170.056 19.0286 170.561 18.6576 171.107 18.4102C171.661 18.1562 172.273 18.0293 172.943 18.0293ZM172.406 20.2266C171.879 20.2266 171.456 20.3535 171.137 20.6074C170.818 20.8548 170.587 21.1868 170.443 21.6035C170.307 22.0137 170.238 22.4629 170.238 22.9512V23.1562C170.238 23.5534 170.277 23.9245 170.355 24.2695C170.434 24.6081 170.557 24.9108 170.727 25.1777C170.896 25.4382 171.12 25.6432 171.4 25.793C171.68 25.9362 172.022 26.0078 172.426 26.0078C172.816 26.0078 173.148 25.9362 173.422 25.793C173.702 25.6432 173.926 25.4382 174.096 25.1777C174.265 24.9108 174.389 24.6081 174.467 24.2695C174.545 23.9245 174.584 23.5534 174.584 23.1562V22.9512C174.584 22.5801 174.545 22.2318 174.467 21.9062C174.389 21.5742 174.265 21.2845 174.096 21.0371C173.926 20.7832 173.702 20.5846 173.422 20.4414C173.142 20.2982 172.803 20.2266 172.406 20.2266ZM186.215 17.4336V19.6406H181.02V17.4336H186.215ZM188.275 17.4336V28H185.463V17.4336H188.275ZM180.316 17.4336H183.08L182.797 22.7656C182.758 23.5273 182.676 24.1979 182.553 24.7773C182.429 25.3568 182.263 25.8516 182.055 26.2617C181.853 26.6719 181.609 27.0072 181.322 27.2676C181.042 27.5215 180.714 27.707 180.336 27.8242C179.965 27.9414 179.555 28 179.105 28H178.246L178.217 25.7832L178.578 25.7441C178.786 25.7246 178.969 25.666 179.125 25.5684C179.288 25.4642 179.424 25.3177 179.535 25.1289C179.652 24.9336 179.75 24.6895 179.828 24.3965C179.906 24.097 179.968 23.7454 180.014 23.3418C180.066 22.9382 180.102 22.4727 180.121 21.9453L180.316 17.4336ZM190.004 22.8242V22.6191C190.004 21.8444 190.115 21.1315 190.336 20.4805C190.557 19.8229 190.88 19.2533 191.303 18.7715C191.726 18.2897 192.247 17.9154 192.865 17.6484C193.484 17.375 194.193 17.2383 194.994 17.2383C195.795 17.2383 196.508 17.375 197.133 17.6484C197.758 17.9154 198.282 18.2897 198.705 18.7715C199.135 19.2533 199.46 19.8229 199.682 20.4805C199.903 21.1315 200.014 21.8444 200.014 22.6191V22.8242C200.014 23.5924 199.903 24.3053 199.682 24.9629C199.46 25.6139 199.135 26.1836 198.705 26.6719C198.282 27.1536 197.761 27.528 197.143 27.7949C196.524 28.0618 195.814 28.1953 195.014 28.1953C194.213 28.1953 193.5 28.0618 192.875 27.7949C192.257 27.528 191.732 27.1536 191.303 26.6719C190.88 26.1836 190.557 25.6139 190.336 24.9629C190.115 24.3053 190.004 23.5924 190.004 22.8242ZM192.816 22.6191V22.8242C192.816 23.2669 192.855 23.6803 192.934 24.0645C193.012 24.4486 193.135 24.7871 193.305 25.0801C193.48 25.3665 193.708 25.5911 193.988 25.7539C194.268 25.9167 194.61 25.998 195.014 25.998C195.404 25.998 195.74 25.9167 196.02 25.7539C196.299 25.5911 196.524 25.3665 196.693 25.0801C196.863 24.7871 196.986 24.4486 197.064 24.0645C197.149 23.6803 197.191 23.2669 197.191 22.8242V22.6191C197.191 22.1895 197.149 21.7858 197.064 21.4082C196.986 21.0241 196.859 20.6855 196.684 20.3926C196.514 20.0931 196.29 19.8587 196.01 19.6895C195.73 19.5202 195.391 19.4355 194.994 19.4355C194.597 19.4355 194.258 19.5202 193.979 19.6895C193.705 19.8587 193.48 20.0931 193.305 20.3926C193.135 20.6855 193.012 21.0241 192.934 21.4082C192.855 21.7858 192.816 22.1895 192.816 22.6191ZM205.258 24.0156L200.863 17.4336H204.35L206.596 21.418H208.617L208.275 24.0156H205.258ZM206.635 23.5371L204.223 28H200.834L204.34 22.1797L206.635 23.5371ZM210.443 17.4336V28H207.631V17.4336H210.443ZM217.24 17.4336L212.846 24.0156H209.828L209.486 21.418H211.508L213.744 17.4336H217.24ZM213.871 28L211.459 23.5371L213.842 22.1797L217.328 28H213.871ZM221.693 17.4336V28H218.881V17.4336H221.693ZM228.559 17.4336L224.008 24.0449H221.195L220.854 21.4473H222.719L224.994 17.4336H228.559ZM225.121 28L222.523 23.5371L224.975 22.1797L228.891 28H225.121ZM233.08 26.8086L235.883 17.4336H238.9L234.652 29.5918C234.561 29.8587 234.438 30.1452 234.281 30.4512C234.132 30.7572 233.926 31.0469 233.666 31.3203C233.412 31.6003 233.09 31.8281 232.699 32.0039C232.315 32.1797 231.843 32.2676 231.283 32.2676C231.016 32.2676 230.798 32.2513 230.629 32.2188C230.46 32.1862 230.258 32.1406 230.023 32.082V30.0215C230.095 30.0215 230.17 30.0215 230.248 30.0215C230.326 30.028 230.401 30.0312 230.473 30.0312C230.844 30.0312 231.146 29.9889 231.381 29.9043C231.615 29.8197 231.804 29.6895 231.947 29.5137C232.09 29.3444 232.204 29.123 232.289 28.8496L233.08 26.8086ZM231.908 17.4336L234.203 25.0898L234.604 28.0684L232.689 28.2734L228.891 17.4336H231.908Z" fill="white"/>
<defs>
<clipPath id="clip0_288_609">
<rect width="22" height="22" fill="white" transform="translate(24 10.5)"/>
</clipPath>
</defs>
</svg>
