<svg width="25" height="25" viewBox="0 0 25 25" fill="none" xmlns="http://www.w3.org/2000/svg">
<path d="M1.43934 21.4394C0.853555 22.0252 0.853555 22.9748 1.43934 23.5606C2.02512 24.1464 2.97488 24.1464 3.56066 23.5606L1.43934 21.4394ZM13.5606 13.5606C14.1464 12.9748 14.1464 12.0252 13.5606 11.4394C12.9748 10.8536 12.0252 10.8536 11.4394 11.4394L13.5606 13.5606ZM11.4394 11.4394C10.8536 12.0252 10.8536 12.9748 11.4394 13.5606C12.0252 14.1464 12.9748 14.1464 13.5606 13.5606L11.4394 11.4394ZM23.5606 3.56066C24.1464 2.97488 24.1464 2.02512 23.5606 1.43934C22.9748 0.853555 22.0252 0.853555 21.4394 1.43934L23.5606 3.56066ZM13.5606 11.4394C12.9748 10.8536 12.0252 10.8536 11.4394 11.4394C10.8536 12.0252 10.8536 12.9748 11.4394 13.5606L13.5606 11.4394ZM21.4394 23.5606C22.0252 24.1464 22.9748 24.1464 23.5606 23.5606C24.1464 22.9748 24.1464 22.0252 23.5606 21.4394L21.4394 23.5606ZM11.4394 13.5606C12.0252 14.1464 12.9748 14.1464 13.5606 13.5606C14.1464 12.9748 14.1464 12.0252 13.5606 11.4394L11.4394 13.5606ZM3.56066 1.43934C2.97488 0.853555 2.02512 0.853555 1.43934 1.43934C0.853555 2.02512 0.853555 2.97488 1.43934 3.56066L3.56066 1.43934ZM3.56066 23.5606L13.5606 13.5606L11.4394 11.4394L1.43934 21.4394L3.56066 23.5606ZM13.5606 13.5606L23.5606 3.56066L21.4394 1.43934L11.4394 11.4394L13.5606 13.5606ZM11.4394 13.5606L21.4394 23.5606L23.5606 21.4394L13.5606 11.4394L11.4394 13.5606ZM13.5606 11.4394L3.56066 1.43934L1.43934 3.56066L11.4394 13.5606L13.5606 11.4394Z" fill="white"/>
</svg>
