<svg width="26" height="25" viewBox="0 0 26 25" fill="none" xmlns="http://www.w3.org/2000/svg">
<path d="M16.6456 5.7297L19.5919 8.67598M14.0417 21.8748H22.375M3.625 21.8753L3.67443 21.5293C3.84933 20.3049 3.93679 19.6928 4.13572 19.1212C4.31224 18.6141 4.55337 18.1318 4.85319 17.6863C5.19105 17.1842 5.62832 16.7469 6.50285 15.8724L18.6361 3.7391C19.4498 2.92551 20.7689 2.9255 21.5825 3.7391C22.396 4.55269 22.396 5.87178 21.5825 6.68538L9.2265 19.0413C8.43311 19.8347 8.03643 20.2314 7.58458 20.5469C7.18352 20.8269 6.75097 21.0589 6.29581 21.2381C5.78303 21.4398 5.23307 21.5508 4.13326 21.7728L3.625 21.8753Z" stroke="#0F0F10" stroke-width="2" stroke-linecap="round" stroke-linejoin="round"/>
</svg>
