<svg width="25" height="25" viewBox="0 0 25 25" fill="none" xmlns="http://www.w3.org/2000/svg">
<path d="M16.1456 5.7297L19.0919 8.67598M13.5417 21.8748H21.875M3.125 21.8753L3.17443 21.5293C3.34933 20.3049 3.43679 19.6928 3.63572 19.1212C3.81224 18.6141 4.05337 18.1318 4.35319 17.6863C4.69105 17.1842 5.12832 16.7469 6.00285 15.8724L18.1361 3.7391C18.9498 2.92551 20.2689 2.9255 21.0825 3.7391C21.896 4.55269 21.896 5.87178 21.0825 6.68538L8.7265 19.0413C7.93311 19.8347 7.53643 20.2314 7.08458 20.5469C6.68352 20.8269 6.25097 21.0589 5.79581 21.2381C5.28303 21.4398 4.73307 21.5508 3.63326 21.7728L3.125 21.8753Z" stroke="white" stroke-width="2" stroke-linecap="round" stroke-linejoin="round"/>
</svg>
