<svg width="43" height="43" viewBox="0 0 43 43" fill="none" xmlns="http://www.w3.org/2000/svg">
<rect width="43" height="43" rx="6" fill="#2B2931" fill-opacity="0.4"/>
<path d="M12.6405 28.364C12.1865 28.8326 12.1865 29.5923 12.6405 30.061C13.0945 30.5296 13.8305 30.5296 14.2845 30.061L12.6405 28.364ZM22.0345 22.061C22.4885 21.5923 22.4885 20.8326 22.0345 20.364C21.5805 19.8953 20.8445 19.8953 20.3905 20.364L22.0345 22.061ZM20.3905 20.364C19.9365 20.8326 19.9365 21.5923 20.3905 22.061C20.8445 22.5296 21.5805 22.5296 22.0345 22.061L20.3905 20.364ZM29.7845 14.061C30.2385 13.5924 30.2385 12.8325 29.7845 12.3639C29.3305 11.8953 28.5946 11.8953 28.1406 12.3639L29.7845 14.061ZM22.0345 20.364C21.5805 19.8953 20.8445 19.8953 20.3905 20.364C19.9365 20.8326 19.9365 21.5923 20.3905 22.061L22.0345 20.364ZM28.1406 30.061C28.5946 30.5296 29.3305 30.5296 29.7845 30.061C30.2385 29.5923 30.2385 28.8326 29.7845 28.364L28.1406 30.061ZM20.3905 22.061C20.8445 22.5296 21.5805 22.5296 22.0345 22.061C22.4885 21.5923 22.4885 20.8326 22.0345 20.364L20.3905 22.061ZM14.2845 12.3639C13.8305 11.8953 13.0945 11.8953 12.6405 12.3639C12.1865 12.8325 12.1865 13.5924 12.6405 14.061L14.2845 12.3639ZM14.2845 30.061L22.0345 22.061L20.3905 20.364L12.6405 28.364L14.2845 30.061ZM22.0345 22.061L29.7845 14.061L28.1406 12.3639L20.3905 20.364L22.0345 22.061ZM20.3905 22.061L28.1406 30.061L29.7845 28.364L22.0345 20.364L20.3905 22.061ZM22.0345 20.364L14.2845 12.3639L12.6405 14.061L20.3905 22.061L22.0345 20.364Z" fill="white"/>
</svg>
