<svg width="25" height="25" viewBox="0 0 25 25" fill="none" xmlns="http://www.w3.org/2000/svg">
<g clip-path="url(#clip0_590_1622)">
<path d="M15.7156 18.0934L13.3462 15.7438C12.2029 14.6099 11.6311 14.043 10.9752 13.8357C10.3982 13.6535 9.77799 13.6602 9.20509 13.8549C8.55367 14.0763 7.99438 14.6555 6.87583 15.8137L1.19886 21.421M15.7156 18.0934L16.2006 17.6126C17.3453 16.4773 17.9176 15.9097 18.5744 15.7025C19.152 15.5202 19.7726 15.5275 20.3459 15.7229C20.9976 15.9451 21.5568 16.5258 22.6752 17.687L23.8635 18.883M15.7156 18.0934L21.4132 23.8022M1.19886 21.421C1.24293 21.7789 1.31799 22.0619 1.44588 22.3129C1.71823 22.8474 2.15284 23.282 2.6874 23.5543C3.29509 23.864 4.09062 23.864 5.68168 23.864H19.318C20.2475 23.864 20.9055 23.864 21.4132 23.8022M1.19886 21.421C1.13623 20.9124 1.13623 20.2525 1.13623 19.3185V5.68217C1.13623 4.09112 1.13623 3.29558 1.44588 2.68788C1.71823 2.15332 2.15284 1.71872 2.6874 1.44636C3.29509 1.13672 4.09062 1.13672 5.68168 1.13672H19.318C20.9091 1.13672 21.7047 1.13672 22.3124 1.44636C22.8469 1.71872 23.2815 2.15332 23.5538 2.68788C23.8635 3.29558 23.8635 4.09112 23.8635 5.68217V18.883M23.8635 18.883V19.3185C23.8635 20.9096 23.8635 21.7052 23.5538 22.3129C23.2815 22.8474 22.8469 23.282 22.3124 23.5543C22.0597 23.6832 21.7744 23.7583 21.4132 23.8022M19.6021 8.23884C19.6021 9.80788 18.3303 11.0798 16.7612 11.0798C15.1922 11.0798 13.9203 9.80788 13.9203 8.23884C13.9203 6.66984 15.1922 5.39793 16.7612 5.39793C18.3303 5.39793 19.6021 6.66984 19.6021 8.23884Z" stroke="#0F0F10" stroke-width="2" stroke-linecap="round" stroke-linejoin="round"/>
</g>
<defs>
<clipPath id="clip0_590_1622">
<rect width="25" height="25" fill="white"/>
</clipPath>
</defs>
</svg>
