<svg width="35" height="36" viewBox="0 0 35 36" fill="none" xmlns="http://www.w3.org/2000/svg">
<path d="M22.6039 8.52197L26.7286 12.6468M18.9583 31.1252H30.625M4.375 31.1257L4.4442 30.6414C4.68907 28.9273 4.81151 28.0702 5.09001 27.2701C5.33714 26.5601 5.67472 25.8849 6.09446 25.2612C6.56747 24.5583 7.17965 23.9461 8.404 22.7218L25.3906 5.73513C26.5297 4.59611 28.3764 4.5961 29.5155 5.73513C30.6545 6.87416 30.6545 8.72089 29.5155 9.85992L12.2171 27.1582C11.1064 28.269 10.551 28.8243 9.91842 29.2661C9.35693 29.6581 8.75136 29.9828 8.11414 30.2337C7.39624 30.5162 6.6263 30.6715 5.08656 30.9822L4.375 31.1257Z" stroke="#0F0F10" stroke-width="3" stroke-linecap="round" stroke-linejoin="round"/>
</svg>
